<svg width="423" height="409" fill="none" xmlns="http://www.w3.org/2000/svg"><path fill-rule="evenodd" clip-rule="evenodd" d="M376.912 354.175c-17.642-31.004-41.305-59.711-64.071-87.055 6.727 1.841 15.603.405 21.735-2.646 6.89-3.427 10.378-9.389 13.165-16.277.396-.977 2.985-11.051 4.876-10.508 3.481 1.001 4.485 23.21 4.86 25.924 1.339 9.69 3.409 19.182 5.579 28.718 4.681 20.551 9.77 41.161 13.856 61.844Zm-75.344-105.244c-4.92.346-8.638-6.613-11.81-10.206 5.312-.206 27.981-6.476 30.69-1.063 4.402 8.803-14.396 10.943-18.88 11.269ZM190.951 81.111c-.021 2.937-.022 14.27-4.603 10.755-3.1-2.38-4.79-13.038-5.751-16.308-1.961-6.662-4.974-14.868-4.63-21.899.653-13.306 9.381-4.227 11.372 2.87 2.197 7.826 3.649 16.425 3.612 24.583Zm35.005 58.29c5.79-3.627 3.466 3.143 1.29 6.372-6.12 9.086-7.474-1.439-1.29-6.372Zm-13.039-31.117c-1.225-6.602-.617-15.56 1.268-21.87 1.48-4.958 6.215-9.575 9.119-3.24 2.412 5.257-2.15 19.079-4.582 24.252-1.977 4.208-4.693 7.783-5.805.858Zm-25.149 2.022c1.083 12.667-9.944 17.305-9.583 2.842.223-8.849 7.648-15.385 9.583-2.842Zm23.318 76.344c.34 5.256-10.707 23.647-11.503 13.499-.227-2.894 10.916-18.237 11.503-13.499Zm-32.395-17.729c-3.78 2.45-14.162 10.638-18.091 8.981-6.279-2.649.89-10.071 3.68-11.98 3.048-2.088 11.401-7.198 15.602-6.556 7.705 1.18 2.705 6.785-1.191 9.555Zm-56.753-75.748c-9.373 3.995-12.669-7.165-14.692-13.829-1.323-4.36-5.998-13.475-1.088-16.587 8.827-5.6 18.678 23.191 15.78 30.416Zm31.066 1.314c-1.431-4.472-2.547-9.04-3.948-13.52-.835-2.665-5.201-12.047-4.675-14.277 1.664-7.075 7.379-3.541 10.702 1.645 3.41 5.325 6.975 16.434 6.616 22.544-.333 5.667-5.624 12.252-8.695 3.608Zm-17.289-47.03c-2.46-7.779 2.859-14.32 8.957-5.652 6.9 9.803-3.584 20.165-8.957 5.652Zm13.491 137.512c.357 7.115-23.763 17.84-29.215 14.563-7.178-4.314 7.563-9.682 11.66-11.812 3.462-1.796 16.545-10.907 17.555-2.751Zm-42.752-10.607c-6.121 1.723-12.396 4.117-18.692 4.981-8.648 1.184-8.574-3.669-2.104-8.768 5.655-4.456 16.23-5.533 22.978-8.23 5.391-2.156 21.028-14.505 24.93-10.681 8.792 8.615-21.333 21.014-27.112 22.698Zm1.633 27.729c.244 9.673-25.368 12.912-31.096 13.477 3.844-2.733 29.345-26.814 31.096-13.477Zm-48.47-48.767c-17.358-.578.081-13.216 5.932-15.55 4.246-1.697 14.239-5.465 18.559-1.913 11.335 9.324-20.026 17.633-24.49 17.463Zm1.971-35.348c.398-5.996 29.287-15.032 30.92-9.544 1.285 4.32-29.534 22.125-30.92 9.544Zm41.559 7.234c11.461-7.853 26.977-.474 9.794 8.63-3.372 1.785-12.198 6.604-15.938 3.856-5.283-3.879 3.109-10.529 6.144-12.486Zm316.165 26.397c-2.841-5.029-6.932-12.056-11.638-7.312-1.829 1.84-3.713 9.526-4.95 12.412-4.336 10.1-8.943 21.378-18.082 28.144-5.47 4.049-24.532 10.586-19.749-1.77 4.077-10.543 17.587-19.877 25.734-27.523 3.776-3.546 12.74-10.825 14.706-15.969 1.498-3.922-2.107-13.15-8.577-11.066-2.937.946-3.317 9.53-4.391 11.975-1.699 3.86-4.698 6.885-7.349 10.093-4.202 5.087-8.645 12.546-15.237 14.942-7.926 2.886-10.375-1.756-6.3-8.874 3.986-6.955 12.992-11.434 18.501-17.143 2.741-2.842 11.374-11.155 9.278-15.403-4.565-9.252-10.94 4.282-13.209 7.032-1.778 2.152-12.567 16.042-15.934 13.389-4.047-3.188 5.016-16.028 6.685-18.772 3.52-5.788 5.059-5.464.602-8.556-2.546-1.77-7.852-3.287-10.666-2.887-6.907.981-13.973 7.355-21.094 9.045-2.947.701-12.987.544-14.203 5.056-1.874 6.946 28.329 23.591 12.416 27.379-12.3 2.923-23.863-16.123-33.973-8.288-15.978 12.388 9.394 19.925 19.141 22.493 4.37 1.153 18.761 1.652 16.659 9.38-1.711 6.283-13.643 4.898-18.243 4.126-8.715-1.459-16.604-5.678-24.753-8.813-2.198-.844-11.036-5.639-13.687-4.606-3.796 1.485-8.396 16.308-6.185 19.803 2.726 4.304 17.705 2.802 22.769 2.913 8.558.182 19.052-.127 26.344 5.203 8.052 5.884-1.901 6.801-7.401 6.564-11.868-.516-23.982-4.714-35.611-6.988-4.056-.796-10.095-2.958-14.126-2.403-6.103.842-4.817 1.265-2.308 6.249 5.596 11.124 11.278 12.375 23.658 13.239 5.647.391 30.354-2.86 32.297 4.676-6.07 4.778-20.795 2.165-27.959 2.063-5.242-.076-13.739 1.132-18.296-1.401-6.205-3.458-14.053-16.352-18.602-21.526-8.069-9.179-16.012-18.312-24.844-26.795 9.637 1.368 18.662 4.421 28.425 2.009 10.672-2.639 20.901-9.769 22.477-21.24.576-4.197-.123-8.506-.423-12.691-.098-1.337-.033-2.711-.193-4.046-.699-5.797-.216-7.686-4.2-3.489-4.533 4.775-7.68 15.645-15.474 17.666-8.629 2.241-4.001-4.225-.493-8.001 8.663-9.326 18.139-17.439 19.573-31.246.782-7.53.344-15.793-1.017-23.303-1.309-7.217-2.612-6.998-5.052-1.085-5.295 12.825-13.55 23.391-24.524 31.967-2.103 1.646-6.82 5.67-9.995 3.392-2.874-2.059-.786-5.957-.004-8.902 1.722-6.508 4.204-12.54 6.649-18.795 3.22-8.24 8.823-19.355 9.051-28.23.15-5.763-4.519-8.237-8.643-11.848-4.822-4.225-9.148-8.726-12.888-13.946-2.607-3.637-5.416-9.092-9.341-11.481-6.093-3.711-4.728.918-4.268 5.549.368 3.699 5.717 40.23-2.95 38.352-8.601-1.86-4.98-36.241-6.173-43.788-1.583-9.998-15.467-8.64-23.868-10.466-4.43-.965-8.49-1.47-12.692-3.104-1.591-.619-3.395-3.316-5.182-2.503-4.06 1.843 12.311 16.879 8.057 22.208-7.182 8.996-14.428-14.763-16.484-19.097-1.728-3.645-3.792-7.914-6.214-11.082-3.744-4.893-4.25-3.712-9.76-2.072-5.511 1.64-18.671 1.5-22.833 5.143-4.023 3.524 1.111 6.108 3.899 9.313 2.641 3.032 11.199 13.321 3.986 15.453-2.605.77-12.058-6.922-14.506-8.504-5.198-3.36-4.077-2.594-8.441-1.493-5.071 1.278-10.78 2.918-15.657 4.645-6.118 2.168-7.575 3.197-2.99 7.58 5.377 5.135 13.428 8.228 16.076 15.574 1.288 3.173.44 6.722-3.567 6.785-4.275.07-6.22-5.766-7.866-8.893-2.084-3.959-5.996-13.269-11.07-14.1-3.17-.52-7.083 3.31-9.765 4.7-1.588.822-8.74 2.956-9.315 5.162-.632 2.423 7.616 7.675 9.853 10.258 5.706 6.59 11.77 14.731 13.928 22.663 1.666 12.947-13.326-2.785-15.689-6.712-2.622-4.354-11.036-26.866-18.569-24.586-2.05.621-3.318 5.62-4.996 7.255-2.056 2.004-4.696 2.81-7.165 4.054-3.659 1.845-7.321 3.69-10.828 5.776-1.084.644-4.03 2.517-4.617 2.942-.442.321-1.42.11-1.957.514-3.669 2.762-5.381 8.35-8.727 11.709-1.502 1.507-8.177 5.623-7.686 7.758.447 1.946 32.224 3.472 36.985 4 3.62.4 18.821-.234 20.678 3.303 1.814 3.46-1.258 4.678-4.247 5.824-7.42 2.844-16.768 3.516-24.576 4.913-5.516.987-28.104 2.391-31.03 7.873-3.022 5.66.652 9.535 4.867 10.312 4.614.853 11.279-1.095 15.789-1.745 3.673-.531 27.12-6.341 28.325-.934 1.31 5.881-26.72 10.816-29.495 11.563-5.304 1.426-14.253 1.682-18.933 4.407-4.194 2.446-2.627 2.73-1.462 6.747 4.025 13.883 5.455 11.169 17.729 8.049 4.698-1.194 10.733-3.33 15.217-.754 5.356 3.072 5.066 6.922.275 9.573-3.292 1.824-10.163 2.253-13.85 2.791-4.308.631-8.674.849-13.024.898-1.279.015-6.874-.915-8.092-.092-4.786 3.23 6.79 20.055 11.788 20.71 2.426.319 6.368-1.335 8.776-1.801 8.415-1.639 16.973-2.507 25.42-4.065 4.756-.877 27.025-7.388 23.035 4.146-2.205 6.372-18.314 9.584-23.657 11.405a233.936 233.936 0 0 1-15.545 4.706c-4.905 1.299-7.761.766-4.495 6.193 3.325 5.523 23.13 22.374 29.347 21.839 5.101-.44 3.206-2.8 8.93.605 2.1 1.252 4.231 3.313 6.054 4.935 6.999 6.214 14.193 15.181 23.965 16.92 20.887 3.718 49.41-24.227 62.895-37.208 2.68-2.578 12.92-15.226 17.904-12.399 5.238 2.968-3.849 14.778-5.654 17.045-10.058 12.64-22.592 24.773-37.485 31.349-3.967 1.75-15.081 3.429-18.84 6.522-3.728 3.063.086 4.05 4.043 6.658 8.44 5.553 19.722 13.746 30.095 10.342 13.657-4.483 20.986-18.807 28.623-30.051 4.237-6.235 24.088-35.69 24.351-12.593.127 11.498-7.159 24.66-14.996 32.566-1.465 1.476-10.939 6.198-10.74 7.32.303 1.704 5.982 2.436 7.019 2.658 10.052 2.162 40.244 5.108 44.477-7.835 2.905-8.879-.634-23.069-1.882-31.998-.39-2.775-2.332-7.231 1.655-8.114 5.106-1.132 9.483 16.709 9.866 19.536.787 5.812-.089 11.869-2.292 17.864-.968 2.635-3.622 4.987-.16 5.399 1.255.148 8.277-6.535 9.378-7.651 5.6-5.7 5.98-12.121 5.522-19.678-1.244-20.393-10.73-40.274-21.764-57.234 13.193 13.684 25.781 27.852 37.962 42.447 3.044 3.647 5.184 8.109 8.187 11.629 4.333 5.074 9.667 9.2 14.175 14.619-1.327-.135-12.82-3.231-13.153-.1-.302 2.849 9.445 7.262 11.442 8.317 8.988 4.761 12.526 5.177 19.592 13.796 17.584 21.456 33.65 43.7 49.387 66.523 7.691 11.154 15.791 22.144 22.563 33.892 3.398 5.891 6.124 12.182 8.708 18.465 1.777 4.32 4.009 17.364 9.547 18.749 6.438 1.613 4.861-5.474 3.553-8.813-2.949-7.528-5.093-14.856-7.192-22.713-3.413-12.779-5.983-25.767-9.713-38.473-4.655-15.855-8.489-31.842-12.328-47.906-2.492-10.428-4.634-21.03-6.237-31.635-1.101-7.283-.825-15.082-2.779-22.219 7.609 6.856 6.128 19.246 18.833 20.132 9.819.686 16.914-7.239 22.531-14.232 4.58-5.704 11.164-14.323 12.053-21.815 1.06-8.941-6.433-2.547-12.017-.609-3.604 1.251-13.54 6.968-16.505 3.554-4.147-4.776 10.653-10.982 13.514-12.801 6.294-3.997 13.273-8.853 18.067-14.709 1.893-2.315 9.736-27.453 1.034-24.037-1.104.433-2.642 3.946-3.532 5.182-4.131 5.73-8.823 10.9-13.887 15.812-5.52 5.351-17.57 17.944-26.773 15.218 3.73-11.294 19.348-17.182 27.79-24.587 5.426-4.757 10.123-10.011 13.349-16.531 1.603-3.244 5.68-12.331 3.725-15.779Z" fill="#02362C"/></svg>