<svg width="379" height="379" fill="none" xmlns="http://www.w3.org/2000/svg"><g filter="url(#a)"><mask id="b" fill="#fff"><path fill-rule="evenodd" clip-rule="evenodd" d="M291.612 129.497c-12.479-3.974-25.489-4.908-38.421-6.303 4.121-.909 8.582-2.124 12.779-2.59 3.862-.424 6.16 1.167 9.795 2.433 6.487 2.265 13.735 5.017 19.375 7.648a115.027 115.027 0 0 0-3.528-1.188Zm-17.773 4.965c-13.691-2.558-27.707-3.113-41.379-5.788 3.39-1.037 5.311-1.941 8.913-1.598 5.355.508 10.774 1.605 16.006 2.77 7.594 1.691 15.256 3.515 22.654 5.914-2.055-.477-4.12-.91-6.194-1.298Zm.659 2.672c-.937.379-4.221-.905-5.282-1.134 1.022.195 4.683 1.376 5.282 1.134Zm-27.259-.281c-10.714-.671-21.556-1.007-32.288-.951 1.927-.72 3.767-1.622 5.644-2.464 5.133-2.301 6.025-1.935 11.149-.423 6.609 1.952 13.38 3.063 20.156 4.193a139.722 139.722 0 0 0-4.662-.354l.001-.001Zm-12.503 6.178c-14.79 1.122-29.379 2.914-44.143 4.567 3.152-1.273 6.182-2.893 9.194-4.458 4.648-2.412 8.216-2.072 13.398-2.074 5.503-.003 10.908.643 16.379 1.265 1.35.155 6.636.588 5.172.7Zm-22.788-11.238c7.896-7.668 16.955-14.813 26.236-20.786 5.89-3.791 12.296-8.072 19.218-4.785-11.448.476-26.404 10.859-33.18 19.758-.325.421-.822.713-1.161 1.127-1.272 1.544.113 1.712-.752 2.662-.101.112-4.726 2-4.113 1.748-3.137 1.294-6.348 2.381-9.49 3.657a141.735 141.735 0 0 1 3.242-3.382v.001Zm44.048-18.372c-7.772 6.5-16.204 9.96-25.566 13.221 8.55-5.498 17.122-9.995 26.519-13.933-.318.237-.636.474-.952.713l-.001-.001Zm9.672 2.23c1.62-.519 2.343-.385 2.703 1.539-4.186-.159-6.174.415-10.13 1.375a57.484 57.484 0 0 1 7.427-2.914Zm5.137 1.049c-.291-.528-.416-1.536-.619-2.051 3.108-.051 5.747.606 8.388 2.236-.874.008-7.553.779-7.769-.185Zm-126.031 72.151c22.721-2.806 44.512-3.539 67.331-1.315-17.191 1.507-34.455 4.962-51.372 8.316-13.582 2.693-27.355 4.147-40.976 6.581 2.524-2.627 4.884-5.41 7.455-7.999 4.466-4.495 11.157-4.782 17.562-5.583Zm78.115 6.691c4.102-.42 8.194-.929 12.274-1.527 4.435-.655 11.509-3.579 15.972-2.698-24.365 7.233-50.693 10.567-75.74 14.643-10.411 1.695-21.01 4.172-31.095 7.315-14.561 4.535-30.985 4.513-44.882 10.884 4.25-4.454 8.905-10.825 13.747-14.447 3.519-2.635 9.356-2.854 13.543-3.407 6.894-.909 13.821-1.616 20.732-2.36 25.16-2.711 50.279-5.771 75.449-8.403Zm-127.41 24.125a189.795 189.795 0 0 0-5.968 6.894c3.51-16.46 3.352-33.818 5.329-50.527 1.118-9.448 2.167-19.002 3.67-28.388 1.33-8.288 1.683-19.58 6.127-26.74 3.316 3.08 5.767 6.349 5.108 10.826-.847 5.758-3.327 11.291-4.481 17.003-1.296 6.419-2.173 12.952-2.974 19.45-1.233 9.994-1.52 20.16-.992 30.208.142 2.825.324 5.647.544 8.467.097 1.23.734 3.327.462 4.477-.663 2.828-4.687 5.962-6.826 8.33Zm24.502-68.531c1.948-9.249 3.135-19.995 7.186-28.665 2.249-4.818 4.412-6.533 7.771-1.329 2.398 3.714-1.369 11.866-2.556 16.534-3.367 13.245-5.145 26.835-7.373 40.303-.582 3.529-.754 7.019-1.13 10.552-.313 2.929-.232 2.755-1.919 4.96-1.085 1.425-2.796 2.635-4.104 3.885-3.429 3.277-6.906 6.511-10.299 9.826 5.163-18.472 8.484-37.32 12.424-56.066Zm254.021 42.008c-3.129-4.161-7.097-7.913-11.157-11.129-5.623-4.459-12.509-7.067-18.125-11.355-4.723-3.61-8.624-8.414-13.451-12.07-7.668-5.802-15.559-10.628-24.538-14.114 11.435 3.902 22.402 8.599 31.563 16.696.774.686 7.483 9.277 8.872 8.456.95-.554-3.076-6.772-3.915-8.221-6.19-10.647-18.893-17.46-28.931-24.299-11.337-7.722-23.717-12.055-36.633-16.326 11.735.648 21.621 3.662 31.452 10.265 4.835 3.245 9.309 7.037 14.293 10.051 4.418 2.672 8.662 5.136 12.475 8.722 4.271 4.019 7.702 8.399 10.536 13.533 1.065 1.932 6.267 13.625 6.407 6.197.069-3.66-4.553-8.875-6.424-11.52-3.155-4.455-6.814-8.468-10.644-12.348-6.515-6.594-12.733-13.438-20.466-18.641-4.398-2.961-9.004-5.306-14.036-6.997-3.886-1.308-7.875-2.246-11.953-2.708-3.872-.438-4.245-.392-7.326-2.392-2.648-1.721-4.908-3.562-7.871-4.789-3.019-1.252-5.589-1.431-7.835-3.139-2.65-2.019-3.678-4.387-7.097-5.651-3.144-1.163-6.361-.907-9.641-.645-10.847.864-21.86 3.614-30.835 10.03-7.931 5.672-13.323 14.723-17.157 23.548-2.117 4.869-.68 4.686-6.365 7.485-5.977 2.944-11.919 5.836-17.734 9.12 9.587-11.917 17.922-25.111 28.433-36.279 5.621-5.965 11.133-12.028 16.752-17.99 1.659-1.757 14.761-14.412 7.402-13.963-1.702.103-4.261 2.378-5.825 3.124-3.121 1.498-6.22 2.826-9.105 4.783-5.001 3.394-9.083 7.616-13.172 12.007-10.593 11.375-20.141 23.541-25.029 38.476-1.158 3.534-1.581 7.518-3.395 10.761-1.277 2.288-2.777 3.078-5.371 4.768-4.449 2.893-8.773 5.868-12.986 9.103 10.773-15.955 17.722-33.81 26.21-50.989 10.918-22.088 15.913-46.878 25.096-69.7 1.781-4.426 3.951-9.297 6.94-13.065.909-1.146 3.782-2.864 4.033-4.309.663-3.811-1.919-2.788-3.814-1.692-4.645 2.686-9.155 8.742-12.329 12.824-4.62 5.938-9.298 12.38-13.3 18.777-13.785 22.035-22.925 47.041-30.516 71.79-3.572 11.634-7.256 23.46-9.014 35.525-.847 5.825.116 5.981-4.751 9.968-5.083 4.166-9.941 8.586-14.984 12.793 4.596-9.437 7.335-21.14 10.651-31.152 3.473-10.488 7.422-20.818 10.951-31.29 5.74-17.041 10.035-34.489 14.168-51.972a851.67 851.67 0 0 0 6.133-27.96c2.418-12.03 4.877-25.921 10.269-37.018.804-1.65 4.072-9.319-.656-6.677-2.166 1.207-4.733 9.109-5.839 11.24-6.264 12.098-11.541 24.383-16.255 37.16-8.357 22.654-14.222 45.87-20.843 69.035-3.31-4.519-10.183-9.494-16.122-7.571-5.334 1.729-7.958 9.322-9.636 14.079-.187-3.291-4.224-9.429-7.371-9.639-1.789-.12-4.871 1.575-6.367 2.282-3.697 1.748-7.898 3.96-10.204 7.401-4.726 7.058-3.83 18.137-4.67 26.306-2.5 24.364-2.052 47.888.702 72.152.63 5.552 1.39 8.128-1.77 12.504-3.607 5-7.086 9.916-10.638 14.61 1.141-2.174.11-8.819.096-11.137-.036-6.21.027-12.367.35-18.572.661-12.78-.025-25.988-.669-38.776-1.325-26.348-1.205-52.36-.316-78.701.186-5.55.06-11.067.027-16.615-.015-2.29.743-7.901-2.895-6.56-1.056.39-1.833 4.486-2.14 5.525-2.834 9.577-3.724 19.938-5.021 29.774-1.18 8.946-2.257 17.907-3.004 26.897-1.436 17.271-.962 34.042-.875 51.342.074 14.251 1.619 29.744 4.253 42.891 1.236 6.166 3.383 12.828 4.008 19.042.38 3.742-1.81 5.129-4.325 8.527-2.545 3.436-5.058 6.899-7.487 10.418.234-5.392-1.303-10.967-1.663-16.363-.303-4.508-.59-8.993-.995-13.496-.323-3.546-.627-7.096-.941-10.645-1.62-18.269-3.201-36.497-6.19-54.598-4.596-27.796-9.608-56.362-9.422-84.64.036-5.396.21-10.789.273-16.187.046-4.069-.328-8.105-.352-12.168-.012-2.072.932-6.079.24-8.143-1.999-5.974-3.73.701-3.786 3.444-.029 1.446-.115 2.887-.137 4.332-.134 9.08-.915 18.034-1.364 27.103-.643 13.076-.068 26.087.366 39.157.474 14.237.118 28.572 1.648 42.757 1.974 18.283 5.927 36.461 8.408 54.696 1.08 7.941 2.585 15.795 3.402 23.773.762 7.457 3.409 14.787 5.02 21.675l-.008-.528c.624 2.928 1.604 4.391.715 7.078-.628 1.887-2.349 3.871-3.38 5.605-2.197 3.688-4.307 7.419-6.418 11.157 1.87-9.488-.665-21.459-2.672-30.779-2.219-10.312-4.922-20.874-8.087-30.931-2.461-7.821-4.498-15.509-5.241-23.65-.99-10.842-3.939-21.269-5.524-32.01-1.496-10.142-4.015-20.184-6.161-30.223-.484-2.26-2.642-13.07-6.154-8.194-.866 1.203.196 4.398.332 5.642.334 3.08.542 6.111.68 9.203.896 19.631 5.008 39.559 8.23 58.901 2.06 12.358 4.24 24.761 7.249 36.924 2.343 9.47 3.609 19.309 6.208 28.646 1.247 4.479 2.513 9.057 4.506 13.262 1.733 3.66 3.48 4.682 2.87 8.626-.876 5.638-5.677 11.491-7.843 16.95-1.772 4.463-3.578 8.934-5.266 13.428a445.79 445.79 0 0 0-6.637 19.097c-1.201 3.704-3.53 8.485-3.748 12.252-.333 5.722 2.906 4.085 4.607.258 1.144-2.576 2.057-5.347 3.134-7.966 7.895-19.191 15.125-39.767 26.915-56.986 4.918-7.191 18.512-8.924 26.488-11.431 19.188-6.039 39.945-6.835 59.854-9.042 16.053-1.776 31.847-3.41 47.563-7.358 2.296-.575 44.189-12.909 43.138-15.06.587 1.207-45.832 11.537-49.549 11.842-11.658.95-23.278 1.205-34.961 1.699-29.222 1.237-57.965 1.939-84.518 15.746 3.351-5.27 7.36-15.218 13.24-17.259 11.337-3.938 23.284-6.481 34.704-10.321 11.872-3.986 24.063-6.656 36.005-10.35 11.928-3.69 23.83-7.513 35.939-10.616 12.172-3.119 24.746-6.369 37.394-5.968 4.868.155 9.75.586 14.597 1.044 1.831.173 16.402 2.867 8.523-.479-5.102-2.169-11.782-2.336-17.248-3.132-6.268-.91-12.276-1.718-18.611-1.668-13.793.106-27.65 3.34-40.983 6.541-15.958 3.827-32.569 7.625-47.802 13.784-13.96 5.645-27.992 11.065-41.953 16.64 2.538-3.886 5.238-7.655 7.88-11.472 1.282-1.857 2.636-4.87 4.457-6.138 2.78-1.937 8.63-2.44 11.858-3.515 12.99-4.319 26.04-9.392 39.351-12.605 21.403-5.168 43.314-8.373 64.85-12.972 12.569-2.681 25.878-5.047 38.729-4.819 4.834.088 9.674-.088 14.421.933 1.679.36 3.793 1.29 5.522 1.486 5.175.58 1.336-1.909-1.803-2.997-24.879-8.613-52.302-1.727-77.38 1.778-16.586 2.315-32.959 4.677-48.795 10.382-14.591 5.255-28.54 12.264-43.374 16.879 3.888-5.525 7.354-11.246 13.566-14.286 6.874-3.361 14.119-4.823 21.621-6.097 15.597-2.658 31.09-6.06 46.737-8.375 14.375-2.123 28.723-4.007 42.972-6.906 13.873-2.825 27.665-4.476 40.907-9.816 4.192-1.691 9.275-4.622 13.751-4.878 5.802-.331 12.827 1.407 18.516 2.269 13.856 2.095 28.239 4.255 41.048 10.12 12.567 5.756 21.102 14.802 30.723 24.259 3.031 2.984 6.013 6.018 9.036 9.01.673.667 4.69 5.675 5.518 5.739 5.124.384-4.542-9.772-6.21-11.853-11.527-14.381-24.001-26.375-40.959-34.21-14.452-6.678-29.561-11.021-45.321-13.245.04-2.849 11.651-2.991 11.969-5.942.422-3.935-7.703.003-9.313.487-3.058.918-6.032 2.066-9.105 2.935-7.056 1.994-14.862-.462-22.029-1.382-8.642-1.104-17.398-1.828-26.089-2.351-28.77-1.735-56.374-.781-84.318 6.928 5.014-4.392 10.245-8.566 15.545-12.608 2.064-1.573 3.637-3.014 5.975-3.752 3.948-1.247 8.636-.69 12.752-1.093 16.272-1.587 32.47-3.371 48.832-3.873 26.926-.826 55.001 4.007 80.536 12.567 12.458 4.178 24.68 8.241 35.497 15.931 2.505 1.778 4.732 3.819 7.008 5.874.941.849 6.685 7.026 6.977 6.993 2.492-.266-9.062-13.051-10.741-14.684-22.561-21.929-51.836-26.915-81.729-31.317-31.26-4.606-62.637-2.16-93.433 4.789 6.15-3.837 12.194-10.413 19.097-12.644 5.244-1.696 11.9-1.374 17.207-1.918 15.387-1.582 31.516 1.105 46.938 2.197 17.421 1.232 34.344 3.467 51.187 8.108 8.618 2.375 17.01 4.888 25.419 7.972 6.664 2.444 12.101 3.949 17.492 8.415 2.175 1.818 8.646 6.646 12.147 9.928 1.428 1.341 2.907 4.173 4.521 4.847 6.012 2.508-1.967-7.288-3.277-8.988 4.779 2.855 9.24 6.161 13.483 9.681.839.698 1.642 1.231 2.492 1.868.997.751 1.52 2.942 3.228 2.212 1.391-.598.897-2.031.233-2.938"/></mask><path fill-rule="evenodd" clip-rule="evenodd" d="M291.612 129.497c-12.479-3.974-25.489-4.908-38.421-6.303 4.121-.909 8.582-2.124 12.779-2.59 3.862-.424 6.16 1.167 9.795 2.433 6.487 2.265 13.735 5.017 19.375 7.648a115.027 115.027 0 0 0-3.528-1.188Zm-17.773 4.965c-13.691-2.558-27.707-3.113-41.379-5.788 3.39-1.037 5.311-1.941 8.913-1.598 5.355.508 10.774 1.605 16.006 2.77 7.594 1.691 15.256 3.515 22.654 5.914-2.055-.477-4.12-.91-6.194-1.298Zm.659 2.672c-.937.379-4.221-.905-5.282-1.134 1.022.195 4.683 1.376 5.282 1.134Zm-27.259-.281c-10.714-.671-21.556-1.007-32.288-.951 1.927-.72 3.767-1.622 5.644-2.464 5.133-2.301 6.025-1.935 11.149-.423 6.609 1.952 13.38 3.063 20.156 4.193a139.722 139.722 0 0 0-4.662-.354l.001-.001Zm-12.503 6.178c-14.79 1.122-29.379 2.914-44.143 4.567 3.152-1.273 6.182-2.893 9.194-4.458 4.648-2.412 8.216-2.072 13.398-2.074 5.503-.003 10.908.643 16.379 1.265 1.35.155 6.636.588 5.172.7Zm-22.788-11.238c7.896-7.668 16.955-14.813 26.236-20.786 5.89-3.791 12.296-8.072 19.218-4.785-11.448.476-26.404 10.859-33.18 19.758-.325.421-.822.713-1.161 1.127-1.272 1.544.113 1.712-.752 2.662-.101.112-4.726 2-4.113 1.748-3.137 1.294-6.348 2.381-9.49 3.657a141.735 141.735 0 0 1 3.242-3.382v.001Zm44.048-18.372c-7.772 6.5-16.204 9.96-25.566 13.221 8.55-5.498 17.122-9.995 26.519-13.933-.318.237-.636.474-.952.713l-.001-.001Zm9.672 2.23c1.62-.519 2.343-.385 2.703 1.539-4.186-.159-6.174.415-10.13 1.375a57.484 57.484 0 0 1 7.427-2.914Zm5.137 1.049c-.291-.528-.416-1.536-.619-2.051 3.108-.051 5.747.606 8.388 2.236-.874.008-7.553.779-7.769-.185Zm-126.031 72.151c22.721-2.806 44.512-3.539 67.331-1.315-17.191 1.507-34.455 4.962-51.372 8.316-13.582 2.693-27.355 4.147-40.976 6.581 2.524-2.627 4.884-5.41 7.455-7.999 4.466-4.495 11.157-4.782 17.562-5.583Zm78.115 6.691c4.102-.42 8.194-.929 12.274-1.527 4.435-.655 11.509-3.579 15.972-2.698-24.365 7.233-50.693 10.567-75.74 14.643-10.411 1.695-21.01 4.172-31.095 7.315-14.561 4.535-30.985 4.513-44.882 10.884 4.25-4.454 8.905-10.825 13.747-14.447 3.519-2.635 9.356-2.854 13.543-3.407 6.894-.909 13.821-1.616 20.732-2.36 25.16-2.711 50.279-5.771 75.449-8.403Zm-127.41 24.125a189.795 189.795 0 0 0-5.968 6.894c3.51-16.46 3.352-33.818 5.329-50.527 1.118-9.448 2.167-19.002 3.67-28.388 1.33-8.288 1.683-19.58 6.127-26.74 3.316 3.08 5.767 6.349 5.108 10.826-.847 5.758-3.327 11.291-4.481 17.003-1.296 6.419-2.173 12.952-2.974 19.45-1.233 9.994-1.52 20.16-.992 30.208.142 2.825.324 5.647.544 8.467.097 1.23.734 3.327.462 4.477-.663 2.828-4.687 5.962-6.826 8.33Zm24.502-68.531c1.948-9.249 3.135-19.995 7.186-28.665 2.249-4.818 4.412-6.533 7.771-1.329 2.398 3.714-1.369 11.866-2.556 16.534-3.367 13.245-5.145 26.835-7.373 40.303-.582 3.529-.754 7.019-1.13 10.552-.313 2.929-.232 2.755-1.919 4.96-1.085 1.425-2.796 2.635-4.104 3.885-3.429 3.277-6.906 6.511-10.299 9.826 5.163-18.472 8.484-37.32 12.424-56.066Zm254.021 42.008c-3.129-4.161-7.097-7.913-11.157-11.129-5.623-4.459-12.509-7.067-18.125-11.355-4.723-3.61-8.624-8.414-13.451-12.07-7.668-5.802-15.559-10.628-24.538-14.114 11.435 3.902 22.402 8.599 31.563 16.696.774.686 7.483 9.277 8.872 8.456.95-.554-3.076-6.772-3.915-8.221-6.19-10.647-18.893-17.46-28.931-24.299-11.337-7.722-23.717-12.055-36.633-16.326 11.735.648 21.621 3.662 31.452 10.265 4.835 3.245 9.309 7.037 14.293 10.051 4.418 2.672 8.662 5.136 12.475 8.722 4.271 4.019 7.702 8.399 10.536 13.533 1.065 1.932 6.267 13.625 6.407 6.197.069-3.66-4.553-8.875-6.424-11.52-3.155-4.455-6.814-8.468-10.644-12.348-6.515-6.594-12.733-13.438-20.466-18.641-4.398-2.961-9.004-5.306-14.036-6.997-3.886-1.308-7.875-2.246-11.953-2.708-3.872-.438-4.245-.392-7.326-2.392-2.648-1.721-4.908-3.562-7.871-4.789-3.019-1.252-5.589-1.431-7.835-3.139-2.65-2.019-3.678-4.387-7.097-5.651-3.144-1.163-6.361-.907-9.641-.645-10.847.864-21.86 3.614-30.835 10.03-7.931 5.672-13.323 14.723-17.157 23.548-2.117 4.869-.68 4.686-6.365 7.485-5.977 2.944-11.919 5.836-17.734 9.12 9.587-11.917 17.922-25.111 28.433-36.279 5.621-5.965 11.133-12.028 16.752-17.99 1.659-1.757 14.761-14.412 7.402-13.963-1.702.103-4.261 2.378-5.825 3.124-3.121 1.498-6.22 2.826-9.105 4.783-5.001 3.394-9.083 7.616-13.172 12.007-10.593 11.375-20.141 23.541-25.029 38.476-1.158 3.534-1.581 7.518-3.395 10.761-1.277 2.288-2.777 3.078-5.371 4.768-4.449 2.893-8.773 5.868-12.986 9.103 10.773-15.955 17.722-33.81 26.21-50.989 10.918-22.088 15.913-46.878 25.096-69.7 1.781-4.426 3.951-9.297 6.94-13.065.909-1.146 3.782-2.864 4.033-4.309.663-3.811-1.919-2.788-3.814-1.692-4.645 2.686-9.155 8.742-12.329 12.824-4.62 5.938-9.298 12.38-13.3 18.777-13.785 22.035-22.925 47.041-30.516 71.79-3.572 11.634-7.256 23.46-9.014 35.525-.847 5.825.116 5.981-4.751 9.968-5.083 4.166-9.941 8.586-14.984 12.793 4.596-9.437 7.335-21.14 10.651-31.152 3.473-10.488 7.422-20.818 10.951-31.29 5.74-17.041 10.035-34.489 14.168-51.972a851.67 851.67 0 0 0 6.133-27.96c2.418-12.03 4.877-25.921 10.269-37.018.804-1.65 4.072-9.319-.656-6.677-2.166 1.207-4.733 9.109-5.839 11.24-6.264 12.098-11.541 24.383-16.255 37.16-8.357 22.654-14.222 45.87-20.843 69.035-3.31-4.519-10.183-9.494-16.122-7.571-5.334 1.729-7.958 9.322-9.636 14.079-.187-3.291-4.224-9.429-7.371-9.639-1.789-.12-4.871 1.575-6.367 2.282-3.697 1.748-7.898 3.96-10.204 7.401-4.726 7.058-3.83 18.137-4.67 26.306-2.5 24.364-2.052 47.888.702 72.152.63 5.552 1.39 8.128-1.77 12.504-3.607 5-7.086 9.916-10.638 14.61 1.141-2.174.11-8.819.096-11.137-.036-6.21.027-12.367.35-18.572.661-12.78-.025-25.988-.669-38.776-1.325-26.348-1.205-52.36-.316-78.701.186-5.55.06-11.067.027-16.615-.015-2.29.743-7.901-2.895-6.56-1.056.39-1.833 4.486-2.14 5.525-2.834 9.577-3.724 19.938-5.021 29.774-1.18 8.946-2.257 17.907-3.004 26.897-1.436 17.271-.962 34.042-.875 51.342.074 14.251 1.619 29.744 4.253 42.891 1.236 6.166 3.383 12.828 4.008 19.042.38 3.742-1.81 5.129-4.325 8.527-2.545 3.436-5.058 6.899-7.487 10.418.234-5.392-1.303-10.967-1.663-16.363-.303-4.508-.59-8.993-.995-13.496-.323-3.546-.627-7.096-.941-10.645-1.62-18.269-3.201-36.497-6.19-54.598-4.596-27.796-9.608-56.362-9.422-84.64.036-5.396.21-10.789.273-16.187.046-4.069-.328-8.105-.352-12.168-.012-2.072.932-6.079.24-8.143-1.999-5.974-3.73.701-3.786 3.444-.029 1.446-.115 2.887-.137 4.332-.134 9.08-.915 18.034-1.364 27.103-.643 13.076-.068 26.087.366 39.157.474 14.237.118 28.572 1.648 42.757 1.974 18.283 5.927 36.461 8.408 54.696 1.08 7.941 2.585 15.795 3.402 23.773.762 7.457 3.409 14.787 5.02 21.675l-.008-.528c.624 2.928 1.604 4.391.715 7.078-.628 1.887-2.349 3.871-3.38 5.605-2.197 3.688-4.307 7.419-6.418 11.157 1.87-9.488-.665-21.459-2.672-30.779-2.219-10.312-4.922-20.874-8.087-30.931-2.461-7.821-4.498-15.509-5.241-23.65-.99-10.842-3.939-21.269-5.524-32.01-1.496-10.142-4.015-20.184-6.161-30.223-.484-2.26-2.642-13.07-6.154-8.194-.866 1.203.196 4.398.332 5.642.334 3.08.542 6.111.68 9.203.896 19.631 5.008 39.559 8.23 58.901 2.06 12.358 4.24 24.761 7.249 36.924 2.343 9.47 3.609 19.309 6.208 28.646 1.247 4.479 2.513 9.057 4.506 13.262 1.733 3.66 3.48 4.682 2.87 8.626-.876 5.638-5.677 11.491-7.843 16.95-1.772 4.463-3.578 8.934-5.266 13.428a445.79 445.79 0 0 0-6.637 19.097c-1.201 3.704-3.53 8.485-3.748 12.252-.333 5.722 2.906 4.085 4.607.258 1.144-2.576 2.057-5.347 3.134-7.966 7.895-19.191 15.125-39.767 26.915-56.986 4.918-7.191 18.512-8.924 26.488-11.431 19.188-6.039 39.945-6.835 59.854-9.042 16.053-1.776 31.847-3.41 47.563-7.358 2.296-.575 44.189-12.909 43.138-15.06.587 1.207-45.832 11.537-49.549 11.842-11.658.95-23.278 1.205-34.961 1.699-29.222 1.237-57.965 1.939-84.518 15.746 3.351-5.27 7.36-15.218 13.24-17.259 11.337-3.938 23.284-6.481 34.704-10.321 11.872-3.986 24.063-6.656 36.005-10.35 11.928-3.69 23.83-7.513 35.939-10.616 12.172-3.119 24.746-6.369 37.394-5.968 4.868.155 9.75.586 14.597 1.044 1.831.173 16.402 2.867 8.523-.479-5.102-2.169-11.782-2.336-17.248-3.132-6.268-.91-12.276-1.718-18.611-1.668-13.793.106-27.65 3.34-40.983 6.541-15.958 3.827-32.569 7.625-47.802 13.784-13.96 5.645-27.992 11.065-41.953 16.64 2.538-3.886 5.238-7.655 7.88-11.472 1.282-1.857 2.636-4.87 4.457-6.138 2.78-1.937 8.63-2.44 11.858-3.515 12.99-4.319 26.04-9.392 39.351-12.605 21.403-5.168 43.314-8.373 64.85-12.972 12.569-2.681 25.878-5.047 38.729-4.819 4.834.088 9.674-.088 14.421.933 1.679.36 3.793 1.29 5.522 1.486 5.175.58 1.336-1.909-1.803-2.997-24.879-8.613-52.302-1.727-77.38 1.778-16.586 2.315-32.959 4.677-48.795 10.382-14.591 5.255-28.54 12.264-43.374 16.879 3.888-5.525 7.354-11.246 13.566-14.286 6.874-3.361 14.119-4.823 21.621-6.097 15.597-2.658 31.09-6.06 46.737-8.375 14.375-2.123 28.723-4.007 42.972-6.906 13.873-2.825 27.665-4.476 40.907-9.816 4.192-1.691 9.275-4.622 13.751-4.878 5.802-.331 12.827 1.407 18.516 2.269 13.856 2.095 28.239 4.255 41.048 10.12 12.567 5.756 21.102 14.802 30.723 24.259 3.031 2.984 6.013 6.018 9.036 9.01.673.667 4.69 5.675 5.518 5.739 5.124.384-4.542-9.772-6.21-11.853-11.527-14.381-24.001-26.375-40.959-34.21-14.452-6.678-29.561-11.021-45.321-13.245.04-2.849 11.651-2.991 11.969-5.942.422-3.935-7.703.003-9.313.487-3.058.918-6.032 2.066-9.105 2.935-7.056 1.994-14.862-.462-22.029-1.382-8.642-1.104-17.398-1.828-26.089-2.351-28.77-1.735-56.374-.781-84.318 6.928 5.014-4.392 10.245-8.566 15.545-12.608 2.064-1.573 3.637-3.014 5.975-3.752 3.948-1.247 8.636-.69 12.752-1.093 16.272-1.587 32.47-3.371 48.832-3.873 26.926-.826 55.001 4.007 80.536 12.567 12.458 4.178 24.68 8.241 35.497 15.931 2.505 1.778 4.732 3.819 7.008 5.874.941.849 6.685 7.026 6.977 6.993 2.492-.266-9.062-13.051-10.741-14.684-22.561-21.929-51.836-26.915-81.729-31.317-31.26-4.606-62.637-2.16-93.433 4.789 6.15-3.837 12.194-10.413 19.097-12.644 5.244-1.696 11.9-1.374 17.207-1.918 15.387-1.582 31.516 1.105 46.938 2.197 17.421 1.232 34.344 3.467 51.187 8.108 8.618 2.375 17.01 4.888 25.419 7.972 6.664 2.444 12.101 3.949 17.492 8.415 2.175 1.818 8.646 6.646 12.147 9.928 1.428 1.341 2.907 4.173 4.521 4.847 6.012 2.508-1.967-7.288-3.277-8.988 4.779 2.855 9.24 6.161 13.483 9.681.839.698 1.642 1.231 2.492 1.868.997.751 1.52 2.942 3.228 2.212 1.391-.598.897-2.031.233-2.938" fill="#012A32"/><path d="m253.191 123.194-.215-.977.108 1.971.107-.994Zm12.779-2.59-.109-.994h-.002l.111.994Zm9.795 2.433.329-.944-.329.944Zm19.375 7.648-.334.942.757-1.848-.423.906Zm-62.68-2.011-.292-.956.1 1.938.192-.982Zm8.913-1.598-.094.995.094-.995Zm16.006 2.77.218-.976-.218.976Zm22.654 5.914-.227.974.535-1.925-.308.951Zm-10.817.24.187-.983-.399 1.96.212-.977Zm-21.977.853.374.928-.312-1.926-.062.998Zm-32.288-.951-.35-.937.355 1.937-.005-1Zm5.644-2.464-.409-.913.409.913Zm11.149-.423.283-.959-.283.959Zm20.156 4.193-.092.996.257-1.983-.165.987Zm-4.662-.354-.375-.927.316 1.925.059-.998Zm-56.645 10.744-.374-.927.485 1.921-.111-.994Zm9.194-4.458-.461-.887.461.887Zm13.398-2.074v1-1Zm16.379 1.265.114-.993h-.001l-.113.993Zm-17.616-10.538-.697-.718 1.071 1.645-.374-.927Zm26.236-20.786.541.841-.541-.841Zm19.218-4.785.041.999.388-1.903-.429.904Zm-33.18 19.758.792.61.004-.005-.796-.605Zm-1.161 1.127.772.636.001-.002-.773-.634Zm-.752 2.662-.739-.674-.004.004.743.67Zm-4.113 1.748.382.924-.762-1.849.38.925Zm-9.49 3.657-.733-.68 1.109 1.607-.376-.927Zm3.242-3.382.71.705-1.084-1.632.374.927Zm44.048-18.371.928-.374-.515-1.274-1.054.881.641.767Zm-25.566 13.221-.541-.841.87 1.786-.329-.945Zm26.519-13.933.596.803-.982-1.725.386.922Zm-.952.713-.928.375.489 1.21 1.042-.787-.603-.798Zm12.374 3.768-.037.999 1.251.047-.231-1.23-.983.184Zm-10.13 1.375-.429-.903.665 1.875-.236-.972Zm12.564-1.865-.875.484 1.802-.858-.927.374Zm-.619-2.051-.016-1-1.443.023.529 1.343.93-.366Zm8.388 2.236.009 1 3.467-.03-2.951-1.821-.525.851Zm-7.769-.185.927-.375-1.903.593.976-.218Zm-58.7 70.836.088.996.009-1.992-.097.996Zm-51.372 8.316-.194-.981.194.981Zm-40.976 6.581-.721-.693-2.132 2.219 3.029-.541-.176-.985Zm7.455-7.999-.709-.704.709.704Zm107.951-.419.145.989h.001l-.146-.989Zm15.972-2.698.284.958-.091-1.939-.193.981Zm-75.74 14.643-.16-.987.16.987Zm-31.095 7.315.298.955-.298-.955Zm-44.882 10.884-.724-.69 1.14 1.599-.416-.909Zm13.747-14.447.599.8-.599-.8Zm13.543-3.407-.13-.991h-.001l.131.991Zm20.732-2.36.107.995-.107-.995Zm-57.929 22.616-.978-.209 1.75.845-.772-.636Zm5.329-50.527-.993-.118.993.118Zm3.67-28.388-.988-.158.988.158Zm6.127-26.74.68-.732-.89-.827-.64 1.032.85.527Zm5.108 10.826.99.146-.99-.146Zm-4.481 17.003-.98-.198.98.198Zm-2.974 19.45.992.122-.992-.122Zm-.992 30.208.999-.051-.001-.002-.998.053Zm.544 8.467-.997.077v.001l.997-.078Zm.462 4.477-.973-.23v.002l.973.228Zm24.863-88.866.906.423h.001l-.907-.423Zm7.771-1.329-.84.543.84-.543Zm-2.556 16.534-.969-.246h-.001l.97.246Zm-7.373 40.303-.986-.163-.001.001.987.162Zm-1.13 10.552.994.107v-.001l-.994-.106Zm-1.919 4.96-.794-.607-.002.002.796.605Zm-4.104 3.885-.691-.723.691.723Zm-10.299 9.826-.963-.27-1.003 3.587 2.664-2.602-.698-.715Zm255.288-25.187-.621.784.621-.784ZM344.72 170.66l-.607.794.607-.794Zm-13.451-12.07.604-.797h-.001l-.603.797Zm-24.538-14.114.323-.947-.685 1.879.362-.932Zm31.563 16.696.663-.748-.001-.001-.662.749Zm8.872 8.456-.504-.863-.004.002.508.861Zm-3.915-8.221.865-.501-.001-.001-.864.502Zm-28.931-24.299.563-.826-.563.826Zm-36.633-16.326.055-.999-.369 1.948.314-.949Zm31.452 10.265-.558.83.558-.83Zm14.293 10.051.517-.856-.517.856Zm12.475 8.722.685-.729-.685.729Zm10.536 13.533.876-.483-.876.483Zm6.407 6.197-1-.019 1 .019Zm-6.424-11.52.817-.577-.001-.001-.816.578Zm-10.644-12.348.711-.703-.711.703Zm-20.466-18.641-.559.83.559-.83Zm-14.036-6.997-.319.947.001.001.318-.948Zm-11.953-2.708.113-.994-.113.994Zm-7.326-2.392-.545.838v.001l.545-.839Zm-7.871-4.789-.383.923.383-.923Zm-7.835-3.139-.606.796h.001l.605-.796Zm-7.097-5.651-.347.938.347-.938Zm-9.641-.645.08.996-.08-.996Zm-30.835 10.03-.581-.813.581.813Zm-17.157 23.548.917.398-.917-.398Zm-6.365 7.485-.442-.897.442.897Zm-17.734 9.12-.779-.627 1.271 1.498-.492-.871Zm28.433-36.279-.727-.686h-.001l.728.686Zm16.752-17.99-.727-.686h-.001l.728.686Zm7.402-13.963.06.999-.06-.999Zm-5.825 3.124-.431-.902h-.002l.433.902Zm-9.105 4.783-.561-.827.561.827Zm-13.172 12.007.732.682-.732-.682Zm-25.029 38.476.95.311-.95-.311Zm-3.395 10.761-.872-.488h-.001l.873.488Zm-5.371 4.768.545.839v-.001l-.545-.838Zm-12.986 9.103-.829-.56 1.438 1.353-.609-.793Zm26.21-50.989-.896-.443.896.443Zm25.096-69.7.928.374-.928-.374Zm6.94-13.065-.784-.622.784.622Zm4.033-4.309-.985-.171.985.171Zm-3.814-1.692.501.866-.501-.866Zm-12.329 12.824.789.614-.789-.614Zm-13.3 18.777.848.53-.848-.53Zm-30.516 71.79.956.293-.956-.293Zm-9.014 35.525-.989-.145v.001l.989.144Zm-4.751 9.968-.634-.773.634.773Zm-14.984 12.793-.899-.438 1.54 1.206-.641-.768Zm10.651-31.152.95.315-.95-.315Zm10.951-31.29.948.319-.948-.319Zm14.168-51.972.973.23-.973-.23Zm6.133-27.96-.98-.198.98.197Zm10.269-37.018-.899-.438v.001l.899.437Zm-.656-6.677.487.873h.001l-.488-.873Zm-5.839 11.24-.887-.461h-.001l.888.46Zm-16.255 37.16-.939-.346.939.346ZM137.32 118.98l-.807.591 1.207 1.648.561-1.964-.961-.275Zm-16.122-7.571-.308-.951.308.951Zm-9.636 14.079-.998.057 1.941.276-.943-.333Zm-7.371-9.639-.067.998.067-.998Zm-6.367 2.282.428.904-.428-.904Zm-10.204 7.401-.83-.557.83.557Zm-4.67 26.306-.994-.102.995.102Zm.702 72.152.994-.113-.994.113Zm-1.77 12.504-.81-.585.81.585Zm-10.638 14.61-.886-.464 1.683 1.068-.797-.604Zm.096-11.137 1-.006-1 .006Zm.35-18.572.998.052v-.001l-.998-.051Zm-.669-38.776-.998.05.998-.05Zm-.316-78.701.999.034-1-.034Zm.027-16.615 1-.006-1 .006Zm-2.895-6.56.346.939-.346-.939Zm-2.14 5.525.959.284v-.001l-.96-.283Zm-5.021 29.774-.992-.131.992.131Zm-3.004 26.897.996.083-.996-.083Zm-.875 51.342-1 .005 1-.005Zm4.253 42.891.98-.197-.98.197Zm4.008 19.042-.995.1v.001l.995-.101Zm-4.325 8.527.804.595-.804-.595Zm-7.487 10.418-.999-.043-.15 3.47 1.972-2.859-.823-.568Zm-1.663-16.363.997-.067-.997.067Zm-.995-13.496.996-.09v-.001l-.996.091Zm-.941-10.645.996-.088-.996.088Zm-6.19-54.598.986-.163-.986.163Zm-9.422-84.64-1-.006 1 .007Zm.273-16.187 1 .012-1-.012Zm-.352-12.168 1-.006-1 .006Zm.24-8.143.95-.318-.95.318Zm-3.786 3.444-1-.02v.001l1 .02Zm-.137 4.332-1-.015 1 .015ZM28.909 93.8l-.998-.05.998.05Zm.366 39.157-1 .033 1-.033Zm1.648 42.757-.994.107.994-.107Zm8.408 54.696.99-.135-.99.135Zm3.402 23.773.995-.102-.995.102Zm5.02 21.675-.973.228 1.973-.245-1 .017Zm-.008-.528.977-.209-1.977.226 1-.017Zm.715 7.078.949.315v-.001l-.95-.314Zm-3.38 5.605.86.512v-.001l-.86-.511Zm-6.418 11.157-.981-.193 1.852.685-.871-.492ZM35.99 268.39l-.978.211.978-.211Zm-8.087-30.931.954-.301-.954.301Zm-5.241-23.65.996-.091-.996.091Zm-5.524-32.01-.99.145v.001l.99-.146Zm-6.161-30.223.978-.21-.978.21Zm-6.154-8.194-.811-.585v.001l.811.584Zm.332 5.642.994-.108v-.001l-.994.109Zm.68 9.203-.999.044v.001l1-.045Zm8.23 58.901-.986.164.986-.164Zm7.249 36.924-.97.24.97-.24Zm6.208 28.646.964-.268-.964.268Zm4.506 13.262.904-.428-.904.428Zm2.87 8.626.987.153-.988-.153Zm-7.843 16.95.93.369-.93-.369Zm-5.266 13.428-.936-.352v.001l.936.351Zm-6.637 19.097.951.308-.951-.308Zm-3.748 12.252.998.058-.998-.058Zm4.607.258.914.406-.914-.406Zm3.134-7.966-.925-.381v.001l.925.38Zm26.915-56.986.825.565v-.001l-.825-.564Zm26.488-11.431.3.954-.3-.954Zm59.854-9.042-.11-.993.11.993Zm47.563-7.358-.242-.97h-.001l.243.97Zm43.138-15.06.899-.439-1.798.876.899-.437Zm-49.549 11.842.081.997-.081-.997Zm-34.961 1.699-.042-.999.042.999Zm-84.518 15.746-.843-.536-1.997 3.14 3.302-1.717-.462-.887Zm13.24-17.259.329.945-.328-.945Zm34.704-10.321-.318-.948h-.001l.319.948Zm36.005-10.35.295.956-.295-.956Zm35.939-10.616-.248-.969.248.969Zm37.394-5.968.032-1h-.001l-.031 1Zm14.597 1.044-.094.996.094-.996Zm8.523-.479-.392.92h.001l.391-.92Zm-17.248-3.132.144-.99-.144.99Zm-18.611-1.668.008 1-.008-1Zm-40.983 6.541.233.972-.233-.972Zm-47.802 13.784-.375-.927.375.927Zm-41.953 16.64-.838-.547-1.73 2.649 2.939-1.173-.371-.929Zm7.88-11.472.822.569v-.001l-.822-.568Zm4.457-6.138.572.821-.572-.821Zm11.858-3.515-.316-.949.316.949Zm39.351-12.605.235.972-.235-.972Zm64.85-12.972-.208-.978h-.001l.209.978Zm38.729-4.819.018-1h-.001l-.017 1Zm14.421.933-.211.978h.001l.21-.978Zm5.522 1.486-.112.993h.001l.111-.993Zm-1.803-2.997.327-.944-.327.944Zm-77.38 1.778.138.99-.138-.99Zm-48.795 10.382.339.941-.339-.941Zm-43.374 16.879-.818-.575-1.691 2.403 2.806-.873-.297-.955Zm13.566-14.286-.44-.898.44.898Zm21.621-6.097.167.986h.001l-.168-.986Zm46.737-8.375-.146-.989.146.989Zm42.972-6.906.199.98-.199-.98Zm40.907-9.816.374.927-.374-.927Zm13.751-4.878-.057-.998.057.998Zm18.516 2.269-.15.989.15-.989Zm41.048 10.12.416-.909-.416.909Zm30.723 24.259.701-.713v-.001l-.701.714Zm9.036 9.01.704-.71v-.001l-.704.711Zm5.518 5.739-.077.997h.002l.075-.997Zm-6.21-11.853-.78.625.78-.625Zm-40.959-34.21-.419.908.419-.908Zm-45.321-13.245-1-.014-.012.881.872.123.14-.99Zm11.969-5.942.995.107-.995-.107Zm-9.313.487.287.958h.001l-.288-.958Zm-9.105 2.935.272.963-.272-.963ZM247.023 181l.127-.992h-.001l-.126.992Zm-26.089-2.351-.06.998.06-.998Zm-84.318 6.928-.659-.752.925 1.716-.266-.964Zm15.545-12.608-.606-.795.606.795Zm5.975-3.752.301.954-.301-.954Zm12.752-1.093-.097-.995.097.995Zm48.832-3.873.03 1-.03-1Zm80.536 12.567.318-.948-.318.948Zm35.497 15.931-.579.815.001.001.578-.816Zm7.008 5.874-.67.742.67-.742Zm6.977 6.993-.106-.994h-.005l.111.994Zm-10.741-14.684.698-.717h-.001l-.697.717Zm-81.729-31.317-.146.989.146-.989Zm-93.433 4.789-.529-.849.749 1.824-.22-.975Zm19.097-12.644.308.951-.308-.951Zm17.207-1.918.101.995h.001l-.102-.995Zm46.938 2.197-.071.997.071-.997Zm51.187 8.108.266-.965-.266.965Zm25.419 7.972.344-.939-.344.939Zm17.492 8.415.642-.767-.004-.003-.638.77Zm12.147 9.928.685-.729h-.001l-.684.729Zm4.521 4.847.385-.923-.385.923Zm-3.277-8.988.513-.859-1.305 1.469.792-.61Zm13.483 9.681.639-.769-.001-.001-.638.77Zm2.492 1.868.601-.799-.001-.001-.6.8Zm3.228 2.212.393.919.002-.001-.395-.918Zm-81.854-67.538c-12.6-4.013-25.739-4.955-38.617-6.345l-.214 1.989c12.987 1.401 25.867 2.326 38.224 6.262l.607-1.906Zm-38.509-4.374c4.191-.924 8.548-2.114 12.674-2.573l-.221-1.987c-4.267.474-8.833 1.714-12.883 2.607l.43 1.953Zm12.673-2.572c1.753-.193 3.145.068 4.558.538.719.239 1.438.531 2.23.853.784.32 1.632.666 2.569.993l.658-1.889c-.881-.307-1.683-.634-2.473-.956-.782-.318-1.561-.635-2.353-.899-1.61-.536-3.298-.86-5.407-.628l.218 1.988Zm9.356 2.383c6.476 2.261 13.687 5 19.282 7.61l.846-1.812c-5.685-2.652-12.969-5.417-19.469-7.686l-.659 1.888Zm20.039 5.761a119.816 119.816 0 0 0-3.558-1.198l-.608 1.906c1.172.373 2.338.766 3.498 1.177l.668-1.885Zm-21.451 3.737c-6.887-1.286-13.85-2.069-20.767-2.861-6.929-.793-13.813-1.597-20.604-2.925l-.384 1.963c6.881 1.345 13.841 2.157 20.761 2.949 6.932.794 13.822 1.569 20.627 2.84l.367-1.966Zm-41.27-3.849c3.48-1.065 5.169-1.879 8.526-1.559l.189-1.991c-3.849-.366-6 .628-9.3 1.638l.585 1.912Zm8.526-1.559c5.29.502 10.657 1.588 15.883 2.751l.435-1.952c-5.24-1.166-10.709-2.276-16.129-2.79l-.189 1.991Zm15.883 2.751c7.588 1.69 15.211 3.506 22.562 5.89l.617-1.903c-7.445-2.414-15.145-4.247-22.744-5.939l-.435 1.952Zm23.097 3.964c-2.069-.48-4.148-.916-6.236-1.307l-.368 1.966c2.06.385 4.111.815 6.151 1.289l.453-1.948Zm-6.136 1.421c.051-.02.042-.004-.081-.003-.111 0-.264-.013-.462-.043a12.812 12.812 0 0 1-1.405-.328c-.519-.147-1.043-.312-1.521-.461a16.648 16.648 0 0 0-1.227-.35l-.423 1.955c.213.046.569.153 1.056.305.466.145 1.021.32 1.572.475.548.155 1.125.3 1.641.38.259.04.524.068.776.067.24-.001.538-.027.823-.142l-.749-1.855Zm-5.095.775c.471.09 1.546.409 2.737.717.564.146 1.139.285 1.621.372.24.043.48.078.695.09.169.01.491.022.791-.099l-.749-1.855c.151-.061.228-.033.077-.042a4.067 4.067 0 0 1-.459-.063 21.185 21.185 0 0 1-1.475-.339c-1.045-.271-2.312-.64-2.863-.746l-.375 1.965Zm-21.727-1.127a479.002 479.002 0 0 0-32.355-.953l.01 2a477.09 477.09 0 0 1 32.22.949l.125-1.996Zm-32 .984c1.967-.735 3.868-1.666 5.703-2.489l-.818-1.825c-1.919.861-3.698 1.735-5.585 2.44l.7 1.874Zm5.703-2.489c2.555-1.145 3.895-1.547 5.173-1.553 1.323-.007 2.657.402 5.284 1.178l.566-1.919c-2.497-.737-4.171-1.267-5.859-1.259-1.731.008-3.404.573-5.982 1.728l.818 1.825Zm10.457-.376c6.678 1.973 13.511 3.092 20.275 4.22l.329-1.973c-6.789-1.132-13.498-2.233-20.038-4.165l-.566 1.918Zm20.532 2.238a141.77 141.77 0 0 0-4.696-.357l-.118 1.997c1.545.091 3.088.209 4.629.352l.185-1.992Zm-4.38 1.569-.749-1.855-.001.001.75 1.854Zm-12.952 4.253c-14.814 1.123-29.43 2.919-44.179 4.571l.222 1.987c14.779-1.655 29.341-3.444 44.108-4.564l-.151-1.994Zm-43.693 6.492c3.206-1.296 6.287-2.944 9.28-4.498l-.922-1.775c-3.03 1.574-6.011 3.167-9.107 4.418l.749 1.855Zm9.279-4.498c4.387-2.276 7.675-1.96 12.938-1.962l-.001-2c-5.1.002-8.947-.362-13.858 2.187l.921 1.775Zm12.938-1.962c5.436-.003 10.78.635 16.266 1.259l.226-1.987c-5.455-.621-10.921-1.275-16.493-1.272l.001 2Zm16.265 1.259c.653.075 2.402.231 3.648.366.66.072 1.187.138 1.452.188.067.012.086.018.076.015 0 0-.048-.014-.114-.047a.968.968 0 0 1-.477-.576.987.987 0 0 1 .448-1.148.82.82 0 0 1 .231-.092c.033-.008.028-.004-.054.003l.153 1.994c.1-.008.226-.02.342-.046.043-.01.177-.041.32-.122a1.01 1.01 0 0 0 .157-1.655 1.06 1.06 0 0 0-.206-.137 1.282 1.282 0 0 0-.216-.086c-.096-.03-.2-.052-.289-.068a24.008 24.008 0 0 0-1.608-.211c-1.368-.148-2.937-.285-3.635-.365l-.228 1.987Zm-16.806-10.815c7.848-7.62 16.854-14.724 26.081-20.662l-1.083-1.681c-9.334 6.006-18.445 13.192-26.391 20.908l1.393 1.435Zm26.081-20.662c2.975-1.915 5.944-3.859 9.015-4.945 3.026-1.071 6.073-1.279 9.233.222l.858-1.807c-3.762-1.786-7.379-1.496-10.758-.301-3.336 1.181-6.515 3.273-9.431 5.15l1.083 1.681Zm18.635-6.625c-5.972.248-12.747 3.062-18.831 6.872-6.098 3.818-11.628 8.716-15.103 13.279l1.592 1.211c3.301-4.335 8.636-9.078 14.572-12.795 5.95-3.726 12.377-6.341 17.853-6.569l-.083-1.998Zm-33.93 20.146c-.09.116-.216.231-.433.417-.19.162-.473.398-.71.688l1.547 1.267c.103-.126.238-.243.463-.435.197-.169.482-.411.717-.716l-1.584-1.221Zm-1.141 1.102c-.376.457-.62.888-.73 1.325-.116.461-.059.83-.002 1.083.068.305.057.239.058.223.007-.112.065-.128-.045-.007l1.478 1.348c.322-.354.531-.747.562-1.206.025-.363-.091-.745-.102-.794-.022-.101-.019-.123-.01-.158.015-.058.075-.227.335-.542l-1.544-1.272Zm-.723 2.628a.928.928 0 0 1 .215-.177c.013-.008.018-.01.006-.004-.022.011-.062.031-.126.06-.124.057-.302.135-.519.228a287.018 287.018 0 0 1-2.956 1.235l-.371.152-.036.015a.008.008 0 0 0-.005.002h-.002.001l.004-.002a.087.087 0 0 0 .013-.005l.025-.009c.021-.006.206-.047.373-.053.919.742.445 1.869.4 1.893l-.036.018-.016.007-.005.001-.001.001.002-.001a.017.017 0 0 0 .005-.002l.04-.016-.761-1.85-.044.018-.015.006a.043.043 0 0 1-.01.005.098.098 0 0 0-.017.007l-.037.018c-.046.024-.519 1.151.4 1.893.167-.006.352-.047.373-.054a.172.172 0 0 0 .025-.009l.015-.005.01-.004.013-.006.041-.016.376-.154c.35-.144.875-.36 1.423-.588.547-.228 1.12-.468 1.564-.66.221-.095.416-.181.561-.247a5.559 5.559 0 0 0 .297-.148c.018-.011.047-.028.079-.051.019-.012.099-.068.181-.158l-1.485-1.34Zm-3.751 1.493c-1.551.64-3.123 1.23-4.712 1.823-1.584.592-3.187 1.188-4.774 1.833l.753 1.853c1.556-.632 3.13-1.218 4.721-1.812a149.662 149.662 0 0 0 4.775-1.848l-.763-1.849Zm-8.377 5.263a139.933 139.933 0 0 1 3.22-3.358l-1.419-1.409a139.806 139.806 0 0 0-3.266 3.406l1.465 1.361Zm2.136-4.99-.001.001.749 1.854h.001l-.749-1.855Zm43.781-18.211c-7.628 6.379-15.918 9.791-25.254 13.044l.658 1.889c9.387-3.271 17.962-6.778 25.879-13.399l-1.283-1.534Zm-24.384 14.829c8.5-5.466 17.02-9.936 26.365-13.851l-.773-1.845c-9.451 3.96-18.075 8.484-26.674 14.014l1.082 1.682Zm25.382-15.577c-.32.238-.64.477-.959.718l1.206 1.596c.313-.237.628-.472.945-.708l-1.192-1.606Zm.571 1.141-1.855.749v.001l1.855-.75Zm9.049 3.556c.384-.123.654-.187.85-.206.191-.019.24.011.23.006-.043-.021.16.031.336.971l1.965-.368c-.184-.985-.523-1.961-1.423-2.4-.438-.214-.896-.241-1.308-.199-.406.041-.834.155-1.26.291l.61 1.905Zm2.436-.413c-4.341-.164-6.453.444-10.404 1.403l.472 1.944c3.96-.962 5.825-1.501 9.857-1.348l.075-1.999Zm-9.739 3.278a56.525 56.525 0 0 1 7.298-2.863l-.6-1.908a58.5 58.5 0 0 0-7.556 2.965l.858 1.806Zm13.011-3.251c-.071-.128-.149-.381-.247-.783-.078-.323-.183-.81-.317-1.151l-1.861.732c.068.174.127.449.235.891.088.362.218.878.439 1.278l1.751-.967Zm-1.479-.568c2.934-.048 5.382.566 7.847 2.087l1.05-1.702c-2.817-1.739-5.647-2.438-8.929-2.385l.032 2Zm8.364.236c-.265.002-.908.057-1.622.113-.75.058-1.658.124-2.542.16-.893.036-1.721.039-2.321-.017a2.797 2.797 0 0 1-.588-.101c-.046-.016-.018-.013.038.031a.717.717 0 0 1 .25.41l-1.952.437c.079.352.292.59.476.733.179.138.373.223.532.278.318.111.694.169 1.056.203.74.07 1.677.061 2.59.024a72.758 72.758 0 0 0 2.616-.164c.791-.061 1.311-.106 1.484-.107l-.017-2Zm-8.688 1.189v.001l1.854-.749v-.001l-1.854.749Zm-124.982 72.77c22.662-2.8 44.379-3.529 67.112-1.313l.194-1.991c-22.905-2.232-44.771-1.495-67.551 1.319l.245 1.985Zm67.122-3.304c-17.256 1.513-34.574 4.979-51.479 8.331l.389 1.962c16.927-3.356 34.137-6.799 51.265-8.301l-.175-1.992Zm-51.479 8.331c-6.765 1.341-13.581 2.375-20.425 3.379-6.836 1.004-13.703 1.978-20.533 3.199l.352 1.969c6.791-1.214 13.621-2.183 20.472-3.189 6.844-1.004 13.705-2.044 20.523-3.396l-.389-1.962Zm-40.061 8.255c1.274-1.326 2.506-2.691 3.728-4.033 1.227-1.348 2.447-2.676 3.716-3.954l-1.419-1.409c-1.303 1.311-2.549 2.668-3.776 4.016-1.231 1.353-2.441 2.693-3.691 3.994l1.442 1.386Zm7.444-7.987c2.055-2.069 4.649-3.201 7.579-3.91 2.958-.716 6.135-.978 9.397-1.385l-.248-1.985c-3.144.393-6.515.675-9.62 1.426-3.133.759-6.117 2.018-8.527 4.445l1.419 1.409Zm95.068 1.398c4.117-.422 8.224-.933 12.318-1.533l-.29-1.978a283.933 283.933 0 0 1-12.231 1.521l.203 1.99Zm12.319-1.533c2.276-.336 5.288-1.264 8.067-1.942 2.893-.706 5.576-1.157 7.565-.764l.387-1.962c-2.473-.488-5.558.083-8.426.783-2.983.727-5.725 1.588-7.885 1.907l.292 1.978Zm15.541-4.646c-24.284 7.21-50.518 10.53-75.615 14.615l.321 1.974c24.995-4.068 51.419-7.415 75.863-14.672l-.569-1.917Zm-75.615 14.615c-10.456 1.702-21.101 4.19-31.232 7.347l.595 1.91c10.039-3.129 20.592-5.595 30.958-7.283l-.321-1.974Zm-31.232 7.347c-7.203 2.243-14.859 3.358-22.568 4.724-7.669 1.359-15.36 2.963-22.434 6.206l.833 1.818c6.823-3.128 14.293-4.698 21.95-6.055 7.619-1.35 15.455-2.491 22.814-4.783l-.595-1.91Zm-43.862 12.529c2.14-2.243 4.413-5.002 6.677-7.564 2.295-2.595 4.612-5.027 6.946-6.773l-1.198-1.601c-2.509 1.876-4.94 4.441-7.246 7.05-2.336 2.643-4.516 5.296-6.626 7.508l1.447 1.38Zm13.623-14.337c1.574-1.178 3.73-1.857 6.106-2.301 2.393-.448 4.796-.628 6.969-.915l-.262-1.982c-2.013.266-4.622.472-7.075.931-2.469.462-4.991 1.21-6.937 2.666l1.199 1.601Zm13.075-3.216c6.878-.907 13.789-1.612 20.708-2.356l-.214-1.989c-6.903.743-13.847 1.451-20.755 2.363l.261 1.982Zm20.708-2.356c25.194-2.715 50.263-5.77 75.446-8.403l-.208-1.99c-25.156 2.631-50.326 5.696-75.452 8.404l.214 1.989Zm-52.809 14.055a189.602 189.602 0 0 0-5.998 6.93l1.543 1.272a188.46 188.46 0 0 1 5.935-6.857l-1.48-1.345Zm-4.249 7.775c1.77-8.298 2.611-16.808 3.258-25.303.649-8.516 1.1-16.989 2.086-25.316l-1.986-.235c-.992 8.383-1.45 16.944-2.094 25.399-.646 8.476-1.48 16.876-3.22 25.037l1.956.418Zm5.344-50.619c1.12-9.46 2.165-18.987 3.664-28.347l-1.975-.316c-1.507 9.411-2.559 18.993-3.675 28.428l1.986.235Zm3.664-28.347c.336-2.094.61-4.375.899-6.703.289-2.336.594-4.728.995-7.08.805-4.723 1.979-9.178 4.095-12.588l-1.699-1.054c-2.327 3.75-3.552 8.521-4.367 13.306-.41 2.402-.72 4.835-1.01 7.17-.29 2.345-.559 4.583-.888 6.633l1.975.316Zm4.459-26.165c3.269 3.037 5.382 5.992 4.8 9.948l1.979.291c.735-4.998-2.055-8.581-5.418-11.704l-1.361 1.465Zm4.8 9.948c-.411 2.794-1.221 5.551-2.092 8.369-.863 2.795-1.791 5.664-2.38 8.581l1.961.396c.564-2.795 1.453-5.549 2.33-8.387.87-2.816 1.723-5.705 2.16-8.668l-1.979-.291Zm-4.472 16.95c-1.304 6.458-2.185 13.024-2.987 19.526l1.985.244c.801-6.493 1.675-12.995 2.963-19.374l-1.961-.396Zm-2.987 19.526c-1.24 10.056-1.529 20.28-.998 30.382l1.997-.105c-.525-9.994-.238-20.101.986-30.033l-1.985-.244Zm-.998 30.38c.143 2.834.325 5.666.546 8.494l1.994-.155c-.219-2.811-.4-5.624-.542-8.44l-1.998.101Zm.546 8.495c.053.672.257 1.621.38 2.355.142.846.189 1.464.106 1.814l1.947.46c.189-.8.053-1.806-.08-2.604-.152-.909-.315-1.623-.359-2.182l-1.994.157Zm.486 4.171c-.264 1.123-1.251 2.44-2.613 3.878-.661.699-1.37 1.386-2.062 2.061-.685.667-1.36 1.329-1.92 1.949l1.484 1.34c.51-.564 1.14-1.182 1.832-1.857.684-.666 1.424-1.384 2.119-2.118 1.351-1.427 2.707-3.092 3.107-4.797l-1.947-.456Zm19.629-59.767c.49-2.328.932-4.747 1.379-7.187.449-2.445.904-4.913 1.425-7.361 1.041-4.899 2.331-9.667 4.309-13.9l-1.812-.847c-2.073 4.438-3.401 9.378-4.454 14.331-.526 2.479-.986 4.973-1.435 7.416-.449 2.447-.886 4.839-1.369 7.136l1.957.412Zm7.114-28.448c.55-1.18 1.072-2.117 1.582-2.793.52-.689.948-.997 1.273-1.097.26-.079.6-.071 1.122.293.555.387 1.236 1.131 2.047 2.388l1.68-1.085c-.868-1.345-1.717-2.339-2.583-2.943-.899-.628-1.87-.866-2.852-.565-.916.281-1.661.98-2.283 1.804-.634.839-1.225 1.922-1.799 3.152l1.813.846Zm6.024-1.209c.446.691.652 1.666.62 2.926-.032 1.25-.295 2.681-.682 4.192-.386 1.507-.884 3.051-1.367 4.532-.478 1.465-.949 2.887-1.256 4.095l1.938.493c.286-1.127.732-2.474 1.219-3.967.482-1.477.999-3.078 1.403-4.657.403-1.574.707-3.17.744-4.638.037-1.459-.186-2.895-.939-4.061l-1.68 1.085Zm-2.686 15.745c-3.38 13.299-5.169 26.963-7.389 40.386l1.973.326c2.235-13.513 4.002-27.03 7.355-40.22l-1.939-.492Zm-7.39 40.387c-.587 3.562-.77 7.153-1.137 10.609l1.988.211c.384-3.611.547-7 1.123-10.495l-1.974-.325Zm-1.137 10.608c-.165 1.543-.214 2.056-.384 2.499-.165.429-.447.799-1.335 1.96l1.588 1.215c.799-1.044 1.32-1.691 1.614-2.458.29-.754.357-1.618.505-3.003l-1.988-.213Zm-1.721 4.461c-.478.628-1.114 1.233-1.831 1.861-.688.602-1.495 1.262-2.168 1.906l1.382 1.446c.634-.606 1.337-1.176 2.104-1.848.736-.645 1.498-1.358 2.104-2.154l-1.591-1.211Zm-3.999 3.767c-3.415 3.264-6.91 6.515-10.307 9.833l1.397 1.431c3.39-3.311 6.848-6.527 10.292-9.818l-1.382-1.446Zm-8.645 10.818c5.175-18.513 8.509-37.426 12.44-56.13l-1.957-.411c-3.95 18.789-7.258 37.573-12.409 56.002l1.926.539Zm266.281-14.928c-3.196-4.25-7.232-8.061-11.335-11.311l-1.242 1.567c4.016 3.181 7.916 6.873 10.979 10.946l1.598-1.202Zm-11.334-11.311c-2.884-2.287-6.081-4.09-9.2-5.832-3.142-1.754-6.2-3.443-8.94-5.535l-1.214 1.589c2.876 2.197 6.069 3.956 9.179 5.693 3.134 1.749 6.193 3.48 8.932 5.652l1.243-1.567Zm-18.139-11.367c-2.306-1.762-4.419-3.822-6.597-5.94-2.163-2.103-4.388-4.261-6.858-6.132l-1.208 1.594c2.357 1.785 4.496 3.856 6.671 5.972 2.161 2.1 4.36 4.248 6.777 6.095l1.215-1.589Zm-13.456-12.072c-7.719-5.842-15.691-10.721-24.779-14.249l-.724 1.864c8.87 3.444 16.68 8.216 24.296 13.98l1.207-1.595Zm-25.464-12.371c11.4 3.89 22.214 8.536 31.223 16.5l1.325-1.499c-9.311-8.231-20.431-12.979-31.902-16.894l-.646 1.893Zm31.222 16.499.037.037a17.58 17.58 0 0 1 .419.465c.256.294.583.678.965 1.125.76.889 1.724 2.013 2.71 3.092.98 1.072 2.01 2.131 2.9 2.876.439.368.889.699 1.313.909.212.105.461.202.73.241.275.039.631.024.971-.177l-1.017-1.722a.539.539 0 0 1 .33-.081c.018.003-.02-.001-.126-.053-.212-.105-.52-.317-.917-.65-.783-.656-1.74-1.634-2.708-2.692a124.444 124.444 0 0 1-2.666-3.042c-.377-.442-.713-.836-.977-1.139a9.133 9.133 0 0 0-.637-.686l-1.327 1.497Zm10.04 8.571c.673-.393.656-1.135.631-1.409-.033-.36-.154-.754-.292-1.121-.283-.754-.752-1.68-1.253-2.591-.99-1.8-2.263-3.814-2.64-4.465l-1.731 1.003c.462.797 1.623 2.616 2.618 4.426.492.894.904 1.717 1.134 2.33.119.316.164.511.172.602.017.179-.082-.248.353-.502l1.008 1.727Zm-3.555-9.587c-3.193-5.494-8.04-9.955-13.288-13.877-5.219-3.9-10.999-7.377-15.944-10.746l-1.126 1.653c5.092 3.469 10.683 6.817 15.873 10.695 5.16 3.857 9.76 8.126 12.756 13.28l1.729-1.005Zm-29.232-24.623c-11.466-7.811-23.97-12.18-36.882-16.45l-.628 1.899c12.921 4.273 25.176 8.569 36.384 16.204l1.126-1.653Zm-37.252-14.502c11.574.64 21.283 3.604 30.95 10.097l1.115-1.66c-9.993-6.713-20.057-9.776-31.954-10.434l-.111 1.997Zm30.95 10.097c2.394 1.607 4.696 3.347 7.055 5.087 2.349 1.733 4.744 3.457 7.278 4.989l1.035-1.711c-2.45-1.481-4.783-3.159-7.126-4.887-2.332-1.721-4.685-3.5-7.127-5.139l-1.115 1.661Zm14.333 10.076c4.446 2.69 8.588 5.097 12.308 8.595l1.37-1.457c-3.906-3.673-8.252-6.193-12.643-8.849l-1.035 1.711Zm12.307 8.595c4.198 3.951 7.564 8.247 10.347 13.289l1.751-.967c-2.886-5.228-6.382-9.69-10.727-13.779l-1.371 1.457Zm10.347 13.288c.459.834 2.119 4.409 3.586 6.67.376.579.768 1.119 1.154 1.537.194.209.405.407.63.566.219.155.506.313.847.366.376.059.771-.019 1.109-.27.307-.228.492-.543.61-.832.23-.565.327-1.348.345-2.304l-1.999-.038c-.017.902-.113 1.378-.198 1.588-.04.098-.043.049.05-.02a.54.54 0 0 1 .392-.1c.078.012.082.036 0-.022a2.178 2.178 0 0 1-.319-.294c-.274-.296-.593-.727-.943-1.266-1.435-2.212-2.908-5.449-3.513-6.547l-1.751.966Zm8.281 5.733c.022-1.116-.312-2.279-.793-3.388-.485-1.119-1.149-2.251-1.856-3.322a58.073 58.073 0 0 0-2.174-3.032c-.709-.935-1.328-1.731-1.783-2.374l-1.633 1.155c.48.679 1.14 1.527 1.822 2.427a56.197 56.197 0 0 1 2.099 2.925c.674 1.021 1.269 2.045 1.69 3.016.425.98.642 1.842.629 2.555l1.999.038Zm-6.607-12.117c-3.2-4.519-6.903-8.576-10.749-12.473l-1.423 1.405c3.814 3.864 7.431 7.833 10.54 12.224l1.632-1.156Zm-10.749-12.473c-6.471-6.551-12.78-13.494-20.619-18.767l-1.117 1.659c7.627 5.131 13.756 11.876 20.313 18.514l1.423-1.406Zm-20.619-18.767c-4.465-3.007-9.151-5.394-14.275-7.116l-.637 1.896c4.939 1.66 9.465 3.963 13.795 6.879l1.117-1.659Zm-14.275-7.116c-3.945-1.327-8.003-2.283-12.159-2.754l-.225 1.988c3.999.453 7.919 1.374 11.746 2.661l.638-1.895Zm-12.159-2.754c-1.991-.225-2.931-.314-3.781-.573-.815-.248-1.575-.665-3.114-1.664l-1.089 1.678c1.542 1.001 2.51 1.561 3.62 1.899 1.074.328 2.257.435 4.139.648l.225-1.988Zm-6.895-2.237c-2.537-1.648-4.956-3.6-8.032-4.874l-.766 1.847c2.85 1.181 4.951 2.912 7.709 4.704l1.089-1.677Zm-8.032-4.874c-1.561-.647-3.053-1.034-4.286-1.427-1.266-.404-2.341-.834-3.327-1.584l-1.21 1.592c1.26.958 2.593 1.471 3.929 1.897 1.367.436 2.67.765 4.128 1.369l.766-1.847Zm-7.612-3.01c-1.258-.959-2.068-1.944-3.164-3.025-1.071-1.058-2.3-2.07-4.192-2.769l-.694 1.876c1.528.565 2.522 1.369 3.482 2.316.935.924 1.964 2.132 3.356 3.193l1.212-1.591Zm-7.356-5.794c-3.384-1.252-6.823-.963-10.067-.704l.159 1.993c3.316-.264 6.31-.488 9.214.587l.694-1.876Zm-10.067-.704c-10.947.872-22.161 3.653-31.337 10.214l1.163 1.627c8.772-6.272 19.585-8.991 30.333-9.848l-.159-1.993Zm-31.337 10.214c-8.151 5.829-13.634 15.079-17.493 23.962l1.834.797c3.809-8.766 9.111-17.618 16.822-23.132l-1.163-1.627Zm-17.493 23.962c-.545 1.255-.864 2.189-1.114 2.895-.256.725-.416 1.128-.642 1.463-.439.65-1.226 1.197-4.134 2.629l.884 1.794c2.776-1.367 4.114-2.128 4.907-3.304.39-.577.624-1.217.871-1.914.253-.717.549-1.586 1.062-2.766l-1.834-.797Zm-5.89 6.987c-5.968 2.94-11.939 5.845-17.784 9.147l.984 1.741c5.784-3.267 11.699-6.146 17.684-9.094l-.884-1.794Zm-16.513 10.644c4.81-5.978 9.313-12.287 13.894-18.451 4.591-6.177 9.275-12.23 14.489-17.77l-1.457-1.371c-5.297 5.629-10.036 11.757-14.637 17.948-4.612 6.205-9.07 12.452-13.847 18.39l1.558 1.254Zm28.382-36.221c2.814-2.986 5.6-5.996 8.383-9.002 2.783-3.007 5.563-6.01 8.369-8.987l-1.456-1.372a1357.6 1357.6 0 0 0-8.381 9c-2.784 3.007-5.564 6.011-8.37 8.99l1.455 1.371Zm16.751-17.989c.784-.83 4.544-4.504 7.148-7.884.655-.851 1.253-1.703 1.72-2.504.458-.786.829-1.588.97-2.328.142-.744.081-1.64-.634-2.279-.649-.58-1.593-.713-2.59-.652l.121 1.997c.843-.052 1.099.113 1.136.146.003.003.011.005.019.044.013.055.022.17-.016.37-.079.41-.317.98-.734 1.695-.408.7-.951 1.478-1.577 2.29-2.522 3.274-6.142 6.806-7.017 7.733l1.454 1.373Zm6.614-15.647c-.612.037-1.226.26-1.777.522-.561.267-1.132.611-1.668.956-.521.336-1.083.721-1.538 1.02-.485.319-.888.567-1.212.722l.862 1.805c.458-.219.961-.535 1.449-.856.518-.34.995-.67 1.522-1.01.512-.329.998-.619 1.444-.83.457-.218.801-.318 1.039-.332l-.121-1.997Zm-6.197 3.22c-3.069 1.474-6.268 2.846-9.233 4.858l1.123 1.655c2.804-1.903 5.803-3.186 8.976-4.71l-.866-1.802Zm-9.233 4.858c-5.104 3.463-9.253 7.761-13.343 12.153l1.464 1.363c4.089-4.391 8.104-8.537 13.002-11.861l-1.123-1.655Zm-13.343 12.153c-10.621 11.404-20.291 23.7-25.248 38.846l1.901.622c4.819-14.725 14.246-26.761 24.811-38.105l-1.464-1.363Zm-25.248 38.845c-.591 1.806-1.007 3.77-1.468 5.551-.472 1.823-1.006 3.528-1.848 5.034l1.745.976c.972-1.737 1.556-3.646 2.039-5.509.493-1.905.867-3.701 1.433-5.429l-1.901-.623Zm-3.317 10.585c-1.132 2.027-2.381 2.683-5.044 4.418l1.091 1.676c2.525-1.645 4.276-2.57 5.7-5.119l-1.747-.975Zm-5.044 4.418c-4.462 2.902-8.809 5.892-13.049 9.148l1.218 1.586c4.186-3.214 8.487-6.174 12.922-9.057l-1.091-1.677Zm-11.612 10.501c10.823-16.029 17.842-34.033 26.279-51.106l-1.793-.886c-8.541 17.285-15.42 34.991-26.143 50.872l1.657 1.12Zm26.279-51.106c5.494-11.117 9.491-22.898 13.254-34.714 3.77-11.837 7.299-23.69 11.873-35.055l-1.856-.747c-4.609 11.456-8.169 23.41-11.922 35.195-3.76 11.806-7.72 23.463-13.142 34.435l1.793.886Zm25.127-69.77c1.779-4.422 3.904-9.172 6.795-12.817l-1.567-1.243c-3.087 3.892-5.301 8.883-7.084 13.314l1.856.746Zm6.795-12.817c.162-.203.445-.47.847-.816.351-.302.876-.732 1.291-1.094.442-.386.901-.813 1.272-1.257.356-.428.718-.97.825-1.591l-1.97-.343c-.018.102-.11.315-.391.652-.267.32-.631.665-1.051 1.032-.449.392-.829.697-1.28 1.084-.4.344-.817.721-1.11 1.09l1.567 1.243Zm4.235-4.758c.177-1.016.177-1.898-.113-2.587a2.064 2.064 0 0 0-.713-.902 2.104 2.104 0 0 0-1.003-.363c-.634-.067-1.291.111-1.838.32-.569.218-1.138.517-1.632.803l1.001 1.731a9.807 9.807 0 0 1 1.345-.666c.449-.171.752-.217.916-.2.067.008.076.021.062.012-.019-.013-.006-.016.019.043.066.156.141.576-.014 1.466l1.97.343Zm-5.299-2.73c-2.462 1.424-4.836 3.704-6.963 6.089-2.133 2.392-4.08 4.96-5.656 6.987l1.579 1.228c1.598-2.055 3.493-4.556 5.57-6.884 2.083-2.336 4.287-4.426 6.471-5.688l-1.001-1.731Zm-12.619 13.076c-4.632 5.954-9.332 12.425-13.358 18.861l1.696 1.06c3.977-6.358 8.634-12.77 13.241-18.693l-1.579-1.228ZM187.158 57.01c-13.855 22.147-23.025 47.252-30.624 72.026l1.912.587c7.584-24.724 16.693-49.63 30.408-71.552l-1.696-1.06Zm-30.624 72.026c-3.567 11.617-7.276 23.52-9.047 35.674l1.979.289c1.745-11.975 5.402-23.725 8.98-35.376l-1.912-.587Zm-9.047 35.675c-.215 1.474-.318 2.616-.419 3.482-.104.889-.205 1.474-.397 1.985-.367.981-1.13 1.865-3.58 3.872l1.267 1.547c2.418-1.98 3.607-3.168 4.187-4.718.282-.755.403-1.55.509-2.453.109-.927.203-1.989.412-3.427l-1.979-.288Zm-4.396 9.339c-2.554 2.093-5.048 4.247-7.528 6.399-2.483 2.154-4.95 4.303-7.462 6.399l1.281 1.536c2.53-2.111 5.014-4.276 7.491-6.424 2.48-2.152 4.956-4.29 7.486-6.363l-1.268-1.547Zm-13.451 14.004c4.633-9.515 7.428-21.394 10.702-31.275l-1.899-.629c-3.36 10.142-6.043 21.669-10.601 31.028l1.798.876Zm10.702-31.275c1.732-5.232 3.583-10.426 5.446-15.629 1.862-5.2 3.735-10.41 5.503-15.657l-1.895-.638c-1.761 5.225-3.627 10.416-5.491 15.621-1.862 5.202-3.721 10.417-5.462 15.674l1.899.629Zm10.949-31.286c5.755-17.089 10.06-34.576 14.193-52.061l-1.946-.46c-4.133 17.482-8.419 34.89-14.142 51.883l1.895.638Zm14.193-52.062a854.341 854.341 0 0 0 6.141-27.993l-1.961-.393a854.16 854.16 0 0 1-6.126 27.927l1.946.46Zm6.14-27.992c2.43-12.086 4.866-25.824 10.189-36.778l-1.799-.874c-5.462 11.24-7.943 25.284-10.35 37.257l1.96.395ZM181.812 8.66c.41-.842 1.479-3.273 1.832-5.207.089-.49.142-.997.108-1.464-.033-.448-.155-1-.551-1.427-.442-.477-1.046-.615-1.635-.55-.553.06-1.155.301-1.797.66l.976 1.746c.54-.302.871-.4 1.04-.419.134-.014.045.026-.051-.078-.051-.054.005-.038.023.213.017.232-.007.555-.081.96-.301 1.653-1.268 3.881-1.662 4.69l1.798.876ZM179.77.672c-.797.444-1.479 1.382-2.043 2.328-.594.996-1.172 2.208-1.703 3.417-.532 1.212-1.03 2.453-1.458 3.507-.437 1.077-.786 1.919-1.035 2.4l1.775.922c.303-.584.69-1.529 1.113-2.57.432-1.065.918-2.274 1.437-3.455.519-1.183 1.058-2.307 1.589-3.197.562-.943 1.013-1.446 1.299-1.605L179.77.672Zm-6.24 11.653c-6.286 12.142-11.579 24.466-16.306 37.275l1.877.692c4.703-12.744 9.963-24.99 16.205-37.047l-1.776-.92ZM157.224 49.6c-8.374 22.7-14.256 45.98-20.866 69.107l1.923.549c6.633-23.206 12.48-46.357 20.82-68.964l-1.877-.692Zm-19.098 68.791c-1.734-2.369-4.388-4.845-7.402-6.489-3.006-1.64-6.504-2.521-9.834-1.443l.616 1.903c2.609-.845 5.516-.201 8.26 1.296 2.735 1.492 5.171 3.763 6.747 5.914l1.613-1.181Zm-17.236-7.932c-3.028.981-5.179 3.583-6.751 6.363-1.584 2.799-2.687 5.972-3.52 8.334l1.886.666c.845-2.395 1.893-5.397 3.374-8.016 1.493-2.637 3.321-4.697 5.627-5.444l-.616-1.903Zm-8.33 14.973c-.109-1.921-1.288-4.465-2.763-6.504-.751-1.038-1.617-2.001-2.53-2.728-.897-.715-1.932-1.276-3.01-1.348l-.133 1.996c.496.033 1.146.318 1.897.916.735.585 1.48 1.402 2.155 2.336 1.378 1.905 2.31 4.076 2.388 5.446l1.996-.114Zm-8.302-10.58c-1.157-.077-2.575.413-3.748.907-1.205.507-2.421 1.142-3.113 1.469l.855 1.808c.803-.38 1.876-.946 3.034-1.434 1.189-.5 2.206-.797 2.838-.754l.134-1.996Zm-6.861 2.376c-3.674 1.737-8.128 4.048-10.608 7.748l1.662 1.113c2.132-3.181 6.08-5.294 9.8-7.053l-.854-1.808Zm-10.608 7.748c-2.504 3.74-3.48 8.478-3.956 13.193-.239 2.367-.354 4.765-.462 7.059-.108 2.306-.209 4.5-.415 6.509l1.99.204c.213-2.075.315-4.329.423-6.619.108-2.301.221-4.646.454-6.952.467-4.631 1.406-8.962 3.628-12.281l-1.662-1.113Zm-4.833 26.761c-2.51 24.443-2.059 48.041.702 72.367l1.988-.226c-2.747-24.201-3.193-47.653-.7-71.937l-1.99-.204Zm.702 72.367c.325 2.864.65 4.747.532 6.513-.111 1.67-.63 3.232-2.118 5.293l1.622 1.17c1.67-2.315 2.351-4.229 2.492-6.329.134-2.004-.236-4.185-.54-6.873l-1.988.226Zm-1.586 11.806c-3.616 5.011-7.082 9.91-10.626 14.592l1.595 1.207c3.562-4.706 7.052-9.639 10.653-14.629l-1.622-1.17Zm-8.943 15.66c.388-.739.546-1.74.611-2.73.067-1.023.043-2.175-.016-3.302-.06-1.129-.156-2.261-.236-3.239-.082-.998-.145-1.804-.148-2.337l-2 .011c.004.627.075 1.521.155 2.489.08.988.174 2.088.231 3.181.058 1.096.078 2.158.018 3.065-.062.94-.203 1.585-.386 1.933l1.771.929Zm.211-11.608c-.036-6.2.027-12.336.348-18.514l-1.997-.104c-.324 6.232-.387 12.41-.35 18.63l2-.012Zm.348-18.515c.665-12.839-.025-26.101-.668-38.878l-1.997.101c.644 12.799 1.326 25.955.668 38.674l1.997.103Zm-.668-38.878c-1.324-26.311-1.204-52.294-.316-78.616l-1.999-.067c-.889 26.359-1.01 52.401.318 78.784l1.997-.101Zm-.316-78.616c.187-5.578.062-11.13.028-16.655l-2 .012c.034 5.57.158 11.051-.027 16.576l1.999.067Zm.028-16.655c-.004-.58.04-1.248.053-2.16.012-.84-.006-1.792-.157-2.649-.144-.82-.442-1.764-1.16-2.371-.808-.684-1.86-.724-2.977-.312l.692 1.877c.703-.26.92-.1.993-.039.164.14.36.49.483 1.191.116.665.138 1.462.126 2.275-.01.742-.057 1.635-.053 2.2l2-.012Zm-4.24-7.492c-.37.136-.635.395-.813.614-.187.23-.343.496-.474.76-.263.53-.488 1.173-.676 1.793-.19.627-.354 1.269-.488 1.81-.139.562-.235.972-.303 1.203l1.918.566c.085-.288.201-.78.327-1.29.132-.532.285-1.133.46-1.709.177-.583.364-1.102.553-1.482.095-.19.175-.316.235-.39.067-.083.058-.037-.048.002l-.691-1.877Zm-2.754 6.18c-2.863 9.675-3.765 20.156-5.054 29.926l1.983.262c1.307-9.902 2.184-20.143 4.989-29.621l-1.918-.568Zm-5.054 29.926c-1.18 8.953-2.26 17.931-3.009 26.945l1.993.166c.746-8.967 1.82-17.909 2.999-26.849l-1.983-.262Zm-3.009 26.945c-1.44 17.328-.965 34.161-.878 51.43l2-.01c-.087-17.332-.56-34.04.871-51.254l-1.993-.166Zm-.878 51.43c.074 14.312 1.625 29.869 4.273 43.082l1.96-.393c-2.62-13.08-4.16-28.51-4.233-42.699l-2 .01Zm4.273 43.082c.622 3.107 1.478 6.358 2.24 9.54.768 3.205 1.447 6.37 1.753 9.406l1.99-.2c-.32-3.177-1.026-6.451-1.798-9.672-.776-3.244-1.611-6.408-2.224-9.467l-1.961.393Zm3.993 18.947c.163 1.611-.211 2.667-.918 3.743-.372.566-.835 1.134-1.392 1.805-.547.66-1.175 1.407-1.824 2.283l1.608 1.19c.608-.823 1.197-1.524 1.755-2.196.55-.662 1.082-1.311 1.525-1.984.922-1.403 1.452-2.912 1.236-5.043l-1.99.202Zm-4.134 7.831c-2.548 3.441-5.069 6.913-7.506 10.445l1.646 1.136c2.42-3.506 4.926-6.959 7.468-10.391l-1.608-1.19Zm-5.684 11.056c.122-2.796-.217-5.617-.618-8.368-.405-2.779-.87-5.458-1.047-8.105l-1.995.133c.184 2.75.668 5.556 1.063 8.261.399 2.735.712 5.397.599 7.993l1.998.086ZM52.58 258.73c-.301-4.502-.589-9.002-.996-13.519l-1.992.18c.405 4.488.69 8.96.993 13.473l1.995-.134Zm-.996-13.52c-.323-3.545-.626-7.089-.94-10.642l-1.993.176c.314 3.546.618 7.1.941 10.647l1.992-.181Zm-.94-10.642c-1.62-18.261-3.204-36.528-6.2-54.673l-1.974.326c2.982 18.057 4.56 36.246 6.18 54.523l1.993-.176Zm-6.2-54.673c-4.6-27.821-9.595-56.295-9.41-84.47l-2-.013c-.186 28.381 4.845 57.039 9.436 84.809l1.973-.326Zm-9.41-84.47c.038-5.417.211-10.733.274-16.182l-2-.023c-.062 5.346-.237 10.816-.273 16.192l2 .014Zm.274-16.183c.023-2.065-.06-4.117-.15-6.142-.092-2.033-.19-4.035-.202-6.043l-2 .012c.012 2.055.113 4.103.203 6.12.091 2.027.172 4.028.15 6.03l2 .023Zm-.352-12.185c-.006-.969.213-2.353.37-3.971.146-1.491.242-3.22-.18-4.484l-1.897.635c.267.8.238 2.108.087 3.655-.139 1.42-.386 3.074-.38 4.177l2-.012Zm.19-8.455c-.263-.784-.538-1.414-.834-1.89-.284-.455-.661-.892-1.183-1.093-.607-.234-1.175-.068-1.588.237-.37.274-.643.669-.845 1.038-.41.754-.72 1.765-.93 2.72-.211.966-.34 1.964-.356 2.73l2 .04c.012-.605.12-1.47.31-2.341.194-.881.453-1.68.732-2.191.144-.263.247-.365.276-.386.006-.005-.029.023-.103.036a.41.41 0 0 1-.215-.017c-.077-.03.009-.03.203.283.182.292.398.76.636 1.47l1.896-.636Zm-5.736 3.743c-.014.711-.042 1.423-.07 2.147a93.76 93.76 0 0 0-.067 2.189l2 .03c.01-.709.037-1.42.065-2.142.028-.719.057-1.45.071-2.185l-2-.039Zm-.137 4.336c-.133 9.06-.912 17.946-1.363 27.068l1.998.1c.446-9.016 1.23-18.04 1.365-27.138l-2-.03ZM27.91 93.75c-.645 13.127-.068 26.188.366 39.239l1.998-.067c-.434-13.087-1.007-26.049-.366-39.074l-1.998-.098Zm.366 39.239c.471 14.158.117 28.599 1.653 42.831l1.989-.215c-1.526-14.137-1.167-28.365-1.644-42.683l-1.998.067Zm1.653 42.831c.99 9.174 2.477 18.315 4.022 27.426 1.547 9.119 3.151 18.201 4.389 27.297l1.982-.269c-1.244-9.139-2.856-18.263-4.4-27.362-1.544-9.108-3.021-18.198-4.004-27.307l-1.989.215Zm8.41 54.723c1.092 8.028 2.583 15.77 3.4 23.741l1.989-.204c-.818-7.986-2.339-15.95-3.406-23.806l-1.982.269Zm3.4 23.741c.388 3.806 1.256 7.563 2.219 11.204.97 3.673 2.02 7.167 2.822 10.597l1.947-.456c-.81-3.458-1.89-7.074-2.836-10.652-.954-3.61-1.79-7.247-2.163-10.897l-1.99.204Zm7.014 21.556-.009-.528-2 .034.01.528 2-.034Zm-1.986-.302c.163.766.35 1.434.515 2.024.169.602.31 1.103.407 1.591.184.926.203 1.785-.179 2.939l1.899.629c.508-1.533.482-2.748.242-3.957-.115-.58-.28-1.161-.443-1.742a29.82 29.82 0 0 1-.486-1.902l-1.956.418Zm.744 6.553c-.268.806-.788 1.678-1.42 2.618-.598.892-1.337 1.896-1.87 2.792l1.72 1.022c.497-.838 1.134-1.692 1.81-2.698.643-.957 1.298-2.021 1.658-3.103l-1.898-.631Zm-3.29 5.409c-2.204 3.7-4.32 7.44-6.43 11.177l1.742.984c2.11-3.739 4.215-7.46 6.407-11.137l-1.718-1.024Zm-4.578 11.862c1.919-9.73-.68-21.92-2.675-31.182l-1.956.421c2.02 9.377 4.492 21.129 2.669 30.375l1.962.386Zm-2.675-31.182c-2.224-10.338-4.936-20.93-8.111-31.022l-1.908.601c3.154 10.022 5.85 20.554 8.063 30.842l1.956-.421Zm-8.111-31.022c-2.454-7.796-4.466-15.404-5.2-23.44l-1.99.182c.752 8.247 2.813 16.014 5.282 23.859l1.908-.601Zm-5.2-23.44c-.5-5.477-1.493-10.838-2.553-16.148-1.063-5.323-2.189-10.579-2.977-15.917l-1.978.292c.797 5.403 1.938 10.731 2.993 16.017 1.059 5.3 2.034 10.573 2.524 15.938l1.992-.182Zm-5.53-32.065c-1.502-10.184-4.036-20.294-6.172-30.287l-1.956.419c2.156 10.085 4.66 20.06 6.15 30.159l1.978-.291Zm-6.172-30.287c-.235-1.098-.915-4.476-2.003-6.964-.276-.63-.59-1.233-.949-1.742-.35-.499-.792-.976-1.346-1.262a2.271 2.271 0 0 0-1.969-.079c-.635.267-1.184.795-1.676 1.478l1.623 1.169c.386-.536.672-.737.829-.803.106-.045.17-.041.276.013.15.077.367.264.628.635.255.361.507.834.751 1.392.99 2.264 1.631 5.42 1.88 6.582l1.956-.419Zm-7.944-8.568c-.385.535-.496 1.194-.52 1.757-.024.584.043 1.209.134 1.788.092.584.217 1.164.32 1.652.11.514.188.889.216 1.138l1.988-.218c-.041-.373-.147-.864-.247-1.337a29.488 29.488 0 0 1-.301-1.546c-.083-.525-.127-1.002-.111-1.395.017-.413.097-.605.145-.671l-1.624-1.168Zm.15 6.334c.33 3.054.538 6.063.675 9.139l1.998-.089c-.139-3.108-.348-6.16-.685-9.266l-1.989.216Zm.675 9.14c.9 19.71 5.03 39.733 8.243 59.02l1.972-.328c-3.231-19.396-7.324-39.23-8.217-58.783l-1.998.091Zm8.243 59.02c2.059 12.361 4.245 24.796 7.264 37l1.942-.48c-3-12.123-5.175-24.492-7.234-36.848l-1.972.328Zm7.264 37c1.164 4.704 2.06 9.501 2.997 14.324.935 4.81 1.907 9.639 3.219 14.351l1.927-.537c-1.288-4.626-2.248-9.385-3.182-14.196-.932-4.799-1.84-9.657-3.02-14.423l-1.94.481Zm6.216 28.674c1.242 4.462 2.53 9.126 4.565 13.422l1.808-.856c-1.95-4.114-3.195-8.607-4.446-13.102l-1.927.536Zm4.565 13.422c.454.958.907 1.74 1.309 2.419.41.692.742 1.238 1.007 1.791.49 1.026.744 2.063.469 3.835l1.976.306c.337-2.172.022-3.617-.641-5.004-.313-.653-.704-1.295-1.09-1.947a26.912 26.912 0 0 1-1.222-2.256l-1.808.856Zm2.785 8.044c-.408 2.626-1.743 5.361-3.323 8.212-1.546 2.788-3.346 5.714-4.46 8.523l1.859.738c1.051-2.65 2.735-5.379 4.35-8.292 1.58-2.851 3.082-5.861 3.55-8.874l-1.976-.307Zm-7.783 16.735c-1.769 4.455-3.581 8.939-5.273 13.445l1.872.703c1.684-4.482 3.485-8.939 5.26-13.41l-1.86-.738Zm-5.274 13.446a446.684 446.684 0 0 0-6.652 19.14l1.903.616a444.94 444.94 0 0 1 6.622-19.055l-1.873-.701Zm-6.652 19.14c-.6 1.851-1.442 3.857-2.233 6.074-.763 2.14-1.444 4.392-1.562 6.428l1.997.116c.1-1.731.693-3.753 1.449-5.872.728-2.041 1.651-4.277 2.252-6.13l-1.903-.616Zm-3.795 12.502c-.086 1.483.043 2.66.437 3.483.205.427.505.806.929 1.048a1.99 1.99 0 0 0 1.347.222c.821-.145 1.564-.73 2.155-1.392.618-.693 1.192-1.605 1.652-2.639l-1.828-.812c-.39.879-.86 1.607-1.316 2.119-.485.543-.85.726-1.01.754-.049.009-.035-.004-.008.012.017.01-.038-.013-.117-.177-.173-.36-.324-1.125-.244-2.502l-1.997-.116Zm6.52.722c.584-1.317 1.107-2.677 1.614-4.02.51-1.352 1-2.68 1.53-3.972l-1.85-.76c-.545 1.327-1.05 2.694-1.552 4.026-.505 1.341-1.01 2.654-1.57 3.914l1.828.812Zm3.144-7.992c7.926-19.263 15.103-39.695 26.816-56.801l-1.65-1.13c-11.867 17.332-19.15 38.053-27.015 57.17l1.85.761Zm26.816-56.802c2.257-3.301 6.597-5.448 11.584-7.086 2.47-.811 5.04-1.48 7.513-2.107 2.458-.624 4.838-1.21 6.866-1.848l-.6-1.908c-1.96.616-4.27 1.186-6.758 1.817-2.473.628-5.104 1.311-7.645 2.146-5.033 1.653-9.95 3.967-12.61 7.857l1.65 1.129Zm25.963-11.041c19.065-6 39.654-6.784 59.664-9.002l-.22-1.987c-19.809 2.195-40.733 3.004-60.044 9.081l.6 1.908Zm59.664-9.002c16.036-1.775 31.901-3.414 47.697-7.382l-.487-1.94c-15.638 3.929-31.359 5.556-47.43 7.335l.22 1.987Zm47.696-7.382c1.183-.296 12.258-3.532 22.888-6.957 5.318-1.714 10.55-3.482 14.392-4.96 1.915-.737 3.517-1.413 4.618-1.984.541-.281 1.017-.564 1.352-.844.163-.136.357-.324.492-.565.145-.258.278-.696.052-1.159l-1.797.878a.768.768 0 0 1 .001-.698c.039-.068.057-.064-.03.009-.164.137-.482.34-.991.603-.998.518-2.515 1.162-4.415 1.893-3.789 1.458-8.977 3.212-14.287 4.923-10.628 3.424-21.648 6.642-22.76 6.921l.485 1.94Zm41.996-15.593a.935.935 0 0 1 .027-.874.721.721 0 0 1 .179-.213c.022-.018-.006.007-.144.07-.254.117-.679.276-1.281.472-1.193.39-2.95.888-5.109 1.458-4.313 1.139-10.164 2.55-16.159 3.935a986.55 986.55 0 0 1-16.978 3.77c-2.429.514-4.539.946-6.155 1.258-1.643.318-2.714.5-3.112.532l.163 1.994c.532-.044 1.724-.252 3.329-.562 1.632-.316 3.754-.75 6.19-1.266a985.934 985.934 0 0 0 17.013-3.777c6.002-1.387 11.877-2.804 16.22-3.95 2.168-.573 3.97-1.083 5.218-1.49.618-.202 1.134-.39 1.497-.557.171-.079.37-.18.535-.308.076-.059.217-.179.325-.365.124-.215.238-.596.041-1.001l-1.799.874Zm-48.732 10.408c-11.631.948-23.211 1.202-34.921 1.697l.085 1.998c11.656-.493 23.316-.749 34.999-1.701l-.163-1.994Zm-34.921 1.697c-29.168 1.234-58.15 1.929-84.937 15.858l.923 1.774c26.319-13.685 54.822-14.395 84.099-15.634l-.085-1.998Zm-83.632 17.282c.859-1.351 1.755-2.994 2.688-4.688.94-1.707 1.925-3.483 2.984-5.154 2.155-3.4 4.47-6.113 7.053-7.009l-.656-1.89c-3.298 1.145-5.93 4.426-8.086 7.828-1.097 1.73-2.11 3.557-3.047 5.261-.946 1.717-1.807 3.294-2.623 4.579l1.687 1.073Zm12.725-16.851c5.633-1.957 11.423-3.569 17.257-5.178 5.825-1.606 11.695-3.21 17.437-5.14l-.638-1.896c-5.679 1.91-11.492 3.498-17.33 5.108-5.828 1.607-11.68 3.235-17.382 5.216l.656 1.89Zm34.693-10.318c5.905-1.982 11.895-3.64 17.919-5.267 6.016-1.625 12.071-3.222 18.063-5.075l-.591-1.911c-5.949 1.84-11.96 3.425-17.994 5.055-6.025 1.628-12.066 3.299-18.033 5.302l.636 1.896Zm35.982-10.342c11.943-3.695 23.814-7.508 35.892-10.604l-.496-1.937c-12.14 3.111-24.074 6.944-35.987 10.63l.591 1.911Zm35.892-10.604c12.2-3.125 24.634-6.333 37.114-5.937l.063-1.999c-12.814-.406-25.529 2.888-37.673 5.999l.496 1.937Zm37.114-5.937c4.834.154 9.688.583 14.535 1.041l.188-1.991c-4.848-.458-9.757-.893-14.659-1.049l-.064 1.999Zm14.535 1.041c.422.04 1.621.232 3.158.462 1.501.225 3.271.477 4.743.618.733.07 1.418.115 1.969.113.274-.002.542-.015.778-.051.193-.028.535-.093.819-.307.166-.125.364-.34.44-.665a1.176 1.176 0 0 0-.101-.794c-.163-.323-.45-.546-.645-.682-.444-.311-1.162-.669-2.153-1.09l-.782 1.841c.978.416 1.529.706 1.789.888.156.109.081.094.005-.056a.829.829 0 0 1-.061-.56.835.835 0 0 1 .307-.481c.141-.106.232-.093.086-.071a3.891 3.891 0 0 1-.492.028 18.899 18.899 0 0 1-1.768-.104c-1.414-.136-3.138-.381-4.638-.605-1.464-.219-2.772-.428-3.266-.475l-.188 1.991Zm9.008-2.396c-2.675-1.137-5.726-1.735-8.742-2.151-1.512-.208-3.034-.373-4.505-.534a123.14 123.14 0 0 1-4.248-.516l-.288 1.98c1.387.202 2.847.363 4.319.524 1.478.162 2.97.324 4.449.527 2.965.409 5.805.979 8.232 2.011l.783-1.841Zm-17.495-3.201c-6.267-.909-12.343-1.728-18.762-1.678l.015 2c6.251-.049 12.191.748 18.46 1.658l.287-1.98Zm-18.762-1.678c-13.926.108-27.891 3.371-41.21 6.568l.467 1.945c13.348-3.204 27.096-6.408 40.758-6.513l-.015-2Zm-41.209 6.568c-15.933 3.821-32.627 7.637-47.944 13.83l.75 1.854c15.148-6.125 31.678-9.906 47.66-13.739l-.466-1.945Zm-47.944 13.83c-13.963 5.647-27.968 11.055-41.95 16.639l.743 1.857c13.94-5.567 28-10.998 41.957-16.642l-.75-1.854Zm-40.741 18.114c2.529-3.871 5.211-7.615 7.865-11.45l-1.644-1.138c-2.63 3.799-5.347 7.594-7.896 11.494l1.675 1.094Zm7.865-11.451c.343-.495.683-1.058 1.018-1.62.341-.572.677-1.145 1.03-1.702.722-1.135 1.425-2.053 2.159-2.563l-1.143-1.642c-1.088.758-1.972 1.98-2.704 3.133-.373.587-.729 1.195-1.06 1.75a27.493 27.493 0 0 1-.945 1.507l1.645 1.137Zm4.207-5.885c1.208-.842 3.18-1.42 5.41-1.926 2.128-.483 4.516-.903 6.192-1.462l-.632-1.897c-1.553.517-3.704.886-6.002 1.408-2.196.499-4.54 1.141-6.111 2.236l1.143 1.641Zm11.601-3.387c13.055-4.341 26.014-9.382 39.271-12.582l-.47-1.944c-13.365 3.226-26.506 8.33-39.432 12.628l.631 1.898Zm39.271-12.582c21.418-5.171 43.17-8.342 64.824-12.966l-.418-1.956c-21.417 4.574-43.489 7.814-64.876 12.978l.47 1.944Zm64.824-12.966c12.557-2.679 25.772-5.023 38.502-4.797l.035-2c-12.971-.23-26.375 2.158-38.954 4.841l.417 1.956Zm38.501-4.797c4.911.09 9.607-.083 14.229.911l.421-1.956c-4.87-1.047-9.855-.868-14.613-.955l-.037 2Zm14.23.911c.779.167 1.66.466 2.651.78.95.3 1.996.611 2.969.721l.225-1.987c-.756-.086-1.632-.338-2.591-.641-.918-.291-1.934-.636-2.835-.829l-.419 1.956Zm5.621 1.501c.674.076 1.234.106 1.686.088.422-.016.871-.075 1.236-.268.197-.104.424-.277.575-.555.159-.292.178-.599.126-.862-.091-.449-.394-.787-.599-.986-.459-.446-1.175-.895-1.919-1.284-.764-.4-1.638-.779-2.47-1.067l-.655 1.889c.738.256 1.521.596 2.198.95.697.365 1.206.707 1.452.946.148.144.067.123.032-.053a.735.735 0 0 1 .077-.487.638.638 0 0 1 .247-.259c.046-.024-.029.025-.376.038-.315.012-.767-.008-1.387-.077l-.223 1.987Zm-1.365-4.934c-12.624-4.371-25.856-4.797-39.025-3.708-13.133 1.085-26.363 3.698-38.821 5.439l.277 1.981c12.62-1.764 25.641-4.347 38.709-5.427 13.032-1.077 25.951-.639 38.205 3.604l.655-1.889Zm-77.846 1.731c-16.573 2.314-33.046 4.686-48.995 10.433l.678 1.881c15.724-5.665 31.996-8.016 48.594-10.333l-.277-1.981Zm-48.994 10.432c-7.326 2.639-14.492 5.718-21.643 8.698-7.162 2.985-14.321 5.875-21.69 8.167l.594 1.91c7.465-2.322 14.698-5.244 21.866-8.231 7.18-2.992 14.284-6.045 21.55-8.662l-.677-1.882Zm-42.218 18.396c3.955-5.622 7.262-11.064 13.187-13.964l-.879-1.796c-6.498 3.179-10.124 9.18-13.944 14.609l1.636 1.151ZM97.6 229.783c6.734-3.292 13.854-4.736 21.349-6.009l-.335-1.972c-7.508 1.276-14.878 2.755-21.893 6.185l.879 1.796Zm21.35-6.009c15.679-2.672 31.062-6.055 46.715-8.371l-.292-1.979c-15.642 2.314-31.244 5.735-46.759 8.378l.336 1.972Zm46.715-8.371c14.353-2.12 28.742-4.01 43.025-6.916l-.399-1.959c-14.214 2.891-28.522 4.77-42.918 6.896l.292 1.979Zm43.025-6.916c13.769-2.804 27.728-4.483 41.082-9.869l-.748-1.855c-13.129 5.295-26.754 6.917-40.733 9.765l.399 1.959Zm41.082-9.869c1.071-.432 2.195-.941 3.328-1.456 1.139-.519 2.291-1.044 3.45-1.525 2.331-.966 4.592-1.708 6.656-1.826l-.114-1.996c-2.413.138-4.93.989-7.308 1.975-1.196.496-2.38 1.036-3.512 1.551-1.14.518-2.224 1.009-3.248 1.422l.748 1.855Zm13.434-4.807c2.792-.159 5.914.179 9.088.677 1.583.249 3.165.534 4.716.814 1.547.278 3.067.551 4.505.769l.3-1.978c-1.407-.213-2.899-.48-4.45-.76-1.547-.278-3.151-.568-4.761-.821-3.211-.503-6.502-.869-9.512-.697l.114 1.996Zm18.309 2.26c13.884 2.099 28.123 4.244 40.781 10.04l.833-1.818c-12.959-5.934-27.486-8.109-41.315-10.2l-.299 1.978Zm40.781 10.04c12.375 5.668 20.776 14.565 30.439 24.063l1.402-1.427c-9.58-9.415-18.247-18.61-31.008-24.454l-.833 1.818Zm30.438 24.062c3.044 2.996 5.986 5.99 9.035 9.009l1.407-1.422c-2.997-2.966-6.019-6.04-9.039-9.012l-1.403 1.425Zm9.034 9.008c.131.13.472.524.975 1.11.483.563 1.079 1.26 1.682 1.939.6.677 1.22 1.352 1.751 1.868.264.256.525.491.762.671.119.09.25.18.387.254.12.064.33.164.588.184l.153-1.994c.154.012.236.065.206.048a1.082 1.082 0 0 1-.125-.086 6.375 6.375 0 0 1-.577-.512 34.761 34.761 0 0 1-1.649-1.76c-.589-.664-1.175-1.348-1.66-1.914-.465-.542-.879-1.025-1.085-1.228l-1.408 1.42Zm6.147 6.026c.733.055 1.546-.043 2.087-.638.556-.611.519-1.404.389-1.978-.262-1.154-1.163-2.604-2.148-3.968-1.988-2.757-4.941-5.967-5.683-6.892l-1.56 1.251c.926 1.156 3.64 4.065 5.621 6.811 1 1.386 1.659 2.533 1.82 3.241.081.357-.029.31.082.189.095-.105.089.031-.459-.01l-.149 1.994Zm-5.355-13.476c-11.577-14.444-24.167-26.567-41.319-34.492l-.839 1.816c16.762 7.745 29.121 19.609 40.598 33.927l1.56-1.251Zm-41.319-34.492c-14.545-6.721-29.749-11.091-45.601-13.328l-.28 1.981c15.668 2.211 30.682 6.527 45.042 13.163l.839-1.816Zm-44.741-12.323c0-.001-.002-.008.013-.035a.718.718 0 0 1 .159-.18c.203-.178.547-.379 1.056-.592 1.018-.426 2.404-.785 3.902-1.171 1.452-.375 3.012-.776 4.225-1.282.608-.253 1.193-.558 1.653-.944.463-.389.878-.929.956-1.645l-1.989-.214c-.002.022-.02.132-.252.327-.237.198-.611.411-1.137.63-1.054.439-2.46.805-3.955 1.191-1.45.374-2.994.769-4.175 1.263-.589.247-1.162.547-1.602.934-.45.394-.843.954-.854 1.69l2 .028Zm11.964-5.849c.069-.647-.023-1.279-.385-1.804-.364-.527-.9-.8-1.425-.927-.986-.239-2.222-.039-3.326.241-1.148.291-2.346.723-3.336 1.102-1.043.4-1.768.703-2.124.811l.576 1.915c.449-.135 1.343-.506 2.263-.858.973-.372 2.082-.77 3.113-1.032 1.077-.273 1.893-.349 2.362-.235.204.049.245.111.251.119.008.012.078.118.042.455l1.989.213Zm-10.596-.578c-1.549.465-3.076.989-4.579 1.497-1.511.51-3.001 1.007-4.51 1.434l.544 1.925c1.563-.442 3.096-.954 4.606-1.465 1.517-.512 3.006-1.022 4.514-1.475l-.575-1.916Zm-9.089 2.931c-3.336.943-6.895.845-10.573.372-1.837-.236-3.682-.563-5.536-.892-1.845-.327-3.701-.658-5.521-.892l-.255 1.984c1.764.227 3.572.548 5.426.877 1.847.328 3.738.663 5.631.907 3.78.486 7.653.62 11.372-.431l-.544-1.925Zm-21.631-1.412c-8.67-1.108-17.449-1.833-26.154-2.358l-.121 1.997c8.677.522 17.409 1.244 26.022 2.345l.253-1.984Zm-26.154-2.358c-28.829-1.738-56.555-.786-84.645 6.963l.532 1.928c27.798-7.668 55.281-8.626 83.992-6.894l.121-1.997Zm-83.72 8.679c4.992-4.372 10.204-8.532 15.493-12.565l-1.213-1.59c-5.311 4.05-10.561 8.239-15.598 12.651l1.318 1.504Zm15.493-12.565c2.152-1.64 3.544-2.922 5.669-3.593l-.602-1.907c-2.551.805-4.305 2.405-6.28 3.91l1.213 1.59Zm5.669-3.593c1.837-.581 3.881-.751 6.043-.818 2.111-.064 4.405-.028 6.506-.234l-.195-1.99c-2.015.197-4.124.156-6.373.225-2.198.068-4.472.242-6.584.91l.603 1.907Zm12.548-1.052c16.291-1.588 32.446-3.367 48.765-3.868l-.061-1.999c-16.404.503-32.645 2.292-48.898 3.877l.194 1.99Zm48.765-3.868c26.792-.823 54.749 3.987 80.189 12.515l.635-1.896c-25.631-8.592-53.824-13.449-80.885-12.618l.061 1.999Zm80.188 12.515c12.483 4.186 24.56 8.208 35.236 15.798l1.159-1.63c-10.958-7.791-23.326-11.895-35.759-16.064l-.636 1.896Zm35.237 15.799c2.446 1.737 4.627 3.734 6.916 5.8l1.34-1.485c-2.263-2.043-4.537-4.128-7.099-5.946l-1.157 1.631Zm6.916 5.8c.436.394 2.062 2.103 3.683 3.78.795.823 1.577 1.626 2.18 2.223.3.297.566.552.772.737.1.09.203.178.297.248.045.033.111.081.189.124a1.038 1.038 0 0 0 .638.133l-.223-1.988a.972.972 0 0 1 .42.046c.066.023.113.048.132.058.039.022.056.036.042.026a2.831 2.831 0 0 1-.16-.137c-.168-.15-.406-.378-.701-.669a144.66 144.66 0 0 1-2.148-2.191c-1.56-1.615-3.277-3.419-3.781-3.875l-1.34 1.485Zm7.754 7.246c.411-.044.868-.259 1.104-.755.194-.406.147-.823.09-1.089-.118-.553-.45-1.203-.835-1.843-.797-1.325-2.098-3.045-3.496-4.767-2.801-3.452-6.136-7.088-7.013-7.942l-1.395 1.434c.802.78 4.083 4.352 6.855 7.768 1.389 1.711 2.615 3.34 3.336 4.538.373.621.549 1.027.592 1.23.024.112-.029-.002.061-.19a.659.659 0 0 1 .488-.373l.213 1.989Zm-10.151-16.396c-22.823-22.183-52.42-27.192-82.281-31.59l-.291 1.979c29.926 4.408 58.879 9.371 81.178 31.045l1.394-1.434Zm-82.281-31.59c-31.406-4.627-62.91-2.166-93.798 4.803l.44 1.951c30.704-6.927 61.955-9.359 93.067-4.775l.291-1.979Zm-93.049 6.627c3.128-1.952 6.264-4.624 9.344-6.978 3.132-2.394 6.254-4.503 9.532-5.563l-.615-1.903c-3.626 1.172-6.977 3.466-10.131 5.877-3.206 2.451-6.167 4.985-9.188 6.87l1.058 1.697Zm18.876-12.541c2.5-.808 5.374-1.146 8.339-1.344 2.904-.195 5.995-.257 8.661-.53l-.203-1.99c-2.641.271-5.53.319-8.592.524-3.001.201-6.077.55-8.82 1.437l.615 1.903Zm17.001-1.874c15.273-1.571 31.21 1.098 46.765 2.199l.141-1.995c-15.288-1.082-31.608-3.788-47.111-2.194l.205 1.99Zm46.765 2.199c17.383 1.23 34.235 3.457 50.993 8.075l.531-1.929c-16.93-4.664-33.924-6.906-51.383-8.141l-.141 1.995Zm50.992 8.075c8.606 2.371 16.969 4.876 25.341 7.947l.688-1.878c-8.445-3.097-16.866-5.619-25.497-7.998l-.532 1.929Zm25.34 7.947c6.749 2.475 11.974 3.918 17.2 8.247l1.275-1.541c-5.558-4.604-11.206-6.17-17.786-8.584l-.689 1.878Zm17.196 8.244c2.27 1.897 8.619 6.623 12.104 9.89l1.368-1.459c-3.517-3.298-10.109-8.227-12.189-9.966l-1.283 1.535Zm12.103 9.889c.64.6 1.278 1.525 2.088 2.561.382.489.795.99 1.231 1.417.43.423.931.824 1.502 1.063l.77-1.846c-.236-.099-.525-.304-.871-.643a12.81 12.81 0 0 1-1.056-1.223c-.691-.883-1.506-2.046-2.294-2.787l-1.37 1.458Zm4.821 5.041c.778.324 1.501.53 2.112.477a1.65 1.65 0 0 0 .997-.421c.304-.283.435-.64.476-.958.074-.571-.117-1.187-.324-1.693-.224-.548-.547-1.15-.911-1.758-1.446-2.413-3.822-5.354-4.45-6.168l-1.584 1.22c.682.886 2.95 3.693 4.318 5.976.34.566.606 1.072.776 1.487.085.207.138.374.167.503.03.135.024.185.025.176a.45.45 0 0 1 .144-.249c.114-.106.215-.11.191-.108-.099.009-.441-.028-1.167-.33l-.77 1.846Zm-3.405-9.053c4.723 2.823 9.142 6.095 13.357 9.592l1.277-1.539c-4.27-3.543-8.774-6.881-13.608-9.77l-1.026 1.717Zm13.356 9.591c.862.717 1.743 1.308 2.532 1.9l1.2-1.6c-.91-.683-1.635-1.157-2.453-1.837l-1.279 1.537Zm2.531 1.899c.117.088.26.253.475.551.182.252.443.643.712.96.279.326.668.704 1.206.906.578.217 1.199.184 1.829-.085l-.786-1.839c-.224.096-.309.063-.34.052-.072-.027-.196-.108-.386-.331-.2-.234-.363-.486-.613-.833-.217-.302-.513-.692-.895-.979l-1.202 1.598Zm4.224 2.331c.505-.217.915-.545 1.18-.989.263-.441.336-.914.31-1.342-.049-.818-.458-1.587-.846-2.116l-1.613 1.182c.277.378.446.778.463 1.053.007.118-.016.172-.031.197-.013.021-.063.096-.253.178l.79 1.837Z" fill="#000" mask="url(#b)"/></g><defs><filter id="a" x=".486" y=".997" width="378.172" height="377.044" filterUnits="userSpaceOnUse" color-interpolation-filters="sRGB"><feFlood flood-opacity="0" result="BackgroundImageFix"/><feColorMatrix in="SourceAlpha" values="0 0 0 0 0 0 0 0 0 0 0 0 0 0 0 0 0 0 127 0" result="hardAlpha"/><feOffset dy="4"/><feGaussianBlur stdDeviation="2"/><feComposite in2="hardAlpha" operator="out"/><feColorMatrix values="0 0 0 0 0 0 0 0 0 0 0 0 0 0 0 0 0 0 0.25 0"/><feBlend in2="BackgroundImageFix" result="effect1_dropShadow_1_4684"/><feBlend in="SourceGraphic" in2="effect1_dropShadow_1_4684" result="shape"/></filter></defs></svg>