<svg width="293" height="213" fill="none" xmlns="http://www.w3.org/2000/svg"><path fill-rule="evenodd" clip-rule="evenodd" d="M103.589 161.186c-1.121 1.86-.396 4.871-.1 6.862-.269-4.885 3.092-10.384 4.902-14.734 1.761-4.233 3.23-8.6 4.275-13.073.024-.097 2.231-10.08-1.014-8.174-9.022 5.248-3.201 21.775-8.063 29.119Zm-3.885-75.648c2.738 3.603 16.551 20.552 21.557 14.957 3.984-4.453-4.21-15.127-7.643-17.518-5.717-3.978-11.847-7.227-17.328-11.588.614 5.099.117 9.843 3.414 14.15Zm145.655 2.874c4.413-.658 8.839-1.343 13.193-2.323-5.054.746-10.05 1.353-15.007 2.62l1.815-.298-.001.001ZM11.548 169.667c-.925-2.335 4.225-6.287 5.437-7.573 3.322-3.53 6.74-7.454 7.33-12.125 1.084-3.665-7.496-1.76-10.088-2.199-1.818-.308-6.275-1.343-7.206-3.218-1.993-4.018 4.407-6.189 7.2-7.502 4.092-1.923 6.296-2.416 1.946-4.234-4.677-1.953-14.64-1.713-15.758-8.564-.952-5.836 8.832-8.259 12.716-9.152 7.317-1.691 13.839-.631 20.709 2.142 1.602.646 11.307 4.073 10.659 1.672-2.069-5.249-9.093-6.206-11.83-11.003-1.556-2.726-1.63-5.259-3.605-7.945-1.95-2.652-5.96-6.535-4.117-10.302 1.17-2.39 3.95-2.786 6.055-2.052 5.121 1.407 8.563 4.653 13.078 7.213 3.305 1.873 7.035 1.171 9.927 3.958 4.367 4.317 8.752 9.175 13.579 13.198 1.513 1.261 8.588 6.684 9.037 2.522.253-2.344-6.992-6.362-8.17-7.227-2.817-2.07-5.833-3.789-7.36-7.125-.876-1.913-.434-3.967-1.13-5.455-2.058-4.397-8.003-7.69-10.643-11.876-2.369-3.757-7.879-13.257-6.283-17.8 2.185-6.222 8.518.341 11.623 2.664 3.438 2.573 6.425 5.17 10.204 6.96 3.335 1.583 5.767 3.324 8.124 6.355 4.356 5.599 7.258 11.874 10.759 17.768a.543.543 0 0 1-.046-.055c2.098 3.387 5.082 6.937 8.684 8.862 6.037 3.227 4.244-.585 1.294-4.743-4.446-6.27-9.867-11.848-14.331-18.085-1.59-2.222-3.1-4.653-3.332-7.466-.154-1.887 1.047-3.4 1.088-4.77.146-4.764-14.444-31.233-4.478-32.85 5.38-.874 8.688 11.132 10.458 14.296 2.827 5.054 4.227 9.472 9.493 12.237-.492-2.259 1.4-3.85 1.112-5.818-.343-2.341-2.794-4.387-4.13-6.177-3.673-4.921-7.057-10.159-9.38-15.837-7.086-17.325 11.361-4.227 17.203.522 1.12.912 2.564 2.055 3.851 3.073 3.378 2.666 4.48 2.163 8.038 3.553 6.052 2.366 9.488 13.189 11.454 18.895.609 1.76 10.972 29.49 14.956 22.367 2.01-3.593-4.52-15.502-6.631-18.978-3.246-5.344-11.702-12.689-11.046-19.422.206-2.115 1.828-3.004 2.126-4.9.699-4.43-3.474-10.177-4.566-14.323-2.223-8.438 2.355-14.493 8.414-4.955 2.397 3.776 4.174 5.995 7.273 9.274 3.535 3.74 3.454 8.888 6.139 12.863 2.219 3.285 1.916.032 5.508 2.33 2.983 1.91 3.521 8.613 3.9 11.842.527 4.485.178 23.094 6.556 23.17 5.813.068 4.073-11.928 3.367-15.277-1.765-8.38-7.206-14.516-11.847-21.382-2.262-3.347-5.07-7.306-6.172-11.248-.965-3.456.168-6.072.583-9.404.483-3.88 1.373-21.71 9.643-15.983 5.557 3.848 3.583 13.607 8.527 17.89.531-4.6-2.333-16.575 4.105-18.63 6.216-1.984 9.378 11.097 10.933 15.431.953 2.66 3.089 18.273 6.351 19.956 3.406 1.757 4.482-2.758 5.348-5.223 1.483-4.215 13.14-42.913 19.929-38.703 5.266 3.262-4.216 15.192-2.183 18.656.746 1.273 2.082.25 3.409.712 4.861 1.695 5.746 4.164 3.522 9.017 12.956 1.79-1.049 12.912-5.562 16.767-3.074 2.625-16.463 13.614-10.018 18.725 2.167 1.719 8.221-.044 10.927.644 5.221 1.33 6.019 6.217 1.971 9.63-2.783 2.35-6.989 3.494-10.535 3.961-2.036.271-7.755-.503-9.148 1.13 7.645 4.268 1.147 6.37-4.465 8.475-4.197 1.575-15.204 5.17-15.222 11.181 6.91-.636 13.59-3.136 20.421-4.255 7.48-1.222 14.729-2.81 22.313-4.835 14.381-3.841 29.583-7.228 44.261-9.413 7.179-1.069 14.322-2.6 21.424-4.096 2.561-.541 15.666-5.696 16.718-.559 1.421 6.95-18.722 5.667-22.426 7.843-26.542 5.068-52.798 11.667-79.397 16.065 2.37.572 7.634 4.585 5.742 7.567 2.073.258 5.857-.407 7.451 1.207 3.525 3.574-1.24 3.045-1.923 4.76-1.165 2.93 4.966 3.578 7.228 4.243 10.541 3.097 20.821 8.578 30.61 13.549 5.37 2.73 17.127 15.546 6.644 19.287-5.232 1.869-13.12-2.274-17.549-4.573-2.795-1.449-9.578-7.122-13.031-6.623-.196 4.083 4.99 12.182 6.456 15.743 3.104 7.531 4.479 13.329.621 20.953-9.167 18.115-16.471-14.685-19.04-13.362-1.807.932.763 16.222.993 18.18.508 4.338.676 16.736-5.962 17.335-5.568.501-7.868-10.544-9.128-14.162-1.055-3.034-3.157-6.075-3.962-9.567-.662-2.874-.201-5.928-.79-8.734-.612-2.918-3.04-4.499-3.772-7.782-.826-3.686-.781-8.007-1.265-11.814-.809-6.362-1.564-15.134-7.408-19.272-4.653 10.697 2.162 23.898 4.439 34.42 1.138 5.263 2.811 11.654-1.173 15.951-1.601 1.725-.734-.622-2.483 1.921-.392.571-.52 1.581-.726 2.237-1.469 4.706-2.303 9.552-3.647 14.284-.833 2.936-2.679 12.843-6.467 13.681-6.869 1.517-7.458-22.886-8.063-27.495-.455-3.486-.355-7.298-.961-10.692-.556-3.115-2.516-5.209-2.182-8.76.432-4.598 2.322-9.124 3.266-13.626 1.27-6.056 1.242-11.738.499-17.841-.308-2.527-.688-8.446-3.644-8.96-4.751-.822-3.702 8.729-3.747 11.233-.133 7.415 1.815 15.577-.173 23.671-2.054 8.373 2.764 16.139 2.02 24.527-.269 3.029-.948 4.423-2.88 6.645-2.145 2.474-3.244 3.599-4.341 7.346-.994 3.396-4.789 20.373-10.785 15.372-1.946-1.622-.988-5.272-.932-7.375.121-4.636-.017-9.288.218-13.92.148-2.941 1.022-6.275.281-9.191-.703-2.767-2.236-4.197-1.882-7.371.474-4.275 3.719-9.208 3.411-13.379-.292-3.977-1.789-7.868-1.69-12.165.081-3.42 3.301-21.162.662-22.183-5.364-2.076-5.715 19.839-5.776 21.507-.387 10.629.775 21.962.007 32.655-.259 3.594-2.047 5.446-3.183 8.226-1.51 3.694-1.276 8.621-2.508 12.55-.982 3.131-3.552 11.319-7.506 7.091-2.859-3.054-1.95-11.395-2.417-15.383-.525-4.508-1.372-8.916-1.381-13.466-.003-.98.397-2.898.117-3.781-.783-2.443-3.871-2.953-4.684-5.816.685 2.906.528 5.281-.934 7.813-.38.662-1.831 1.512-2.421 2.276-1.782 2.306-2.68 5.729-3.87 8.389-1.677 3.733-12.602 21.082-13.41 8.347-.345-5.443.234-10.993 1.02-16.365.615-4.221 2.224-9.276 1.58-13.52-.67-4.399-1.599-5.681.31-10.375 1.962-4.823 5.79-11.004 4.654-16.377-2.315-10.945-11.919 15.29-12.77 18.18-1.721 5.838-3.962 11.925-8.178 16.444-4.7 5.039-10.277 8.219-14.154 14.147-1.727 2.645-6.707 11.711-10.974 8.982-4.202-2.685 1.394-12.809 2.425-15.763 1.067-3.052 2.713-6.263 3.465-9.357.68-2.809.22-5.531.696-8.379 1.347-8.074 7.885-11.75 11.455-18.486 1.884-3.557 1.499-6.01-3.107-3.848-2.488 1.164-4.465 4.226-6.47 6.146-3.017 2.889-6.268 5.566-9.408 8.322-4.24 3.718-27.646 24.827-32.09 13.496Z" fill="#89B99A"/></svg>